<mxfile host="app.diagrams.net" modified="2024-02-12T08:42:02.536Z" agent="Mozilla/5.0 (Macintosh; Intel Mac OS X 10_15_7) AppleWebKit/537.36 (KHTML, like Gecko) Chrome/121.0.0.0 Safari/537.36" etag="YMA755s0HxBGi0HJUiki" version="23.1.0" type="google">
  <diagram id="C5RBs43oDa-KdzZeNtuy" name="Page-1">
    <mxGraphModel dx="1143" dy="752" grid="1" gridSize="10" guides="1" tooltips="1" connect="1" arrows="1" fold="1" page="1" pageScale="1" pageWidth="827" pageHeight="1169" math="0" shadow="0">
      <root>
        <mxCell id="WIyWlLk6GJQsqaUBKTNV-0" />
        <mxCell id="WIyWlLk6GJQsqaUBKTNV-1" parent="WIyWlLk6GJQsqaUBKTNV-0" />
        <mxCell id="ljEpmhRt66cEGAsof3XZ-26" value="" style="whiteSpace=wrap;html=1;" vertex="1" parent="WIyWlLk6GJQsqaUBKTNV-1">
          <mxGeometry y="100" width="830" height="380" as="geometry" />
        </mxCell>
        <mxCell id="WIyWlLk6GJQsqaUBKTNV-2" value="" style="rounded=0;html=1;jettySize=auto;orthogonalLoop=1;fontSize=11;endArrow=block;endFill=0;endSize=8;strokeWidth=1;shadow=0;labelBackgroundColor=none;edgeStyle=orthogonalEdgeStyle;" parent="WIyWlLk6GJQsqaUBKTNV-1" edge="1">
          <mxGeometry relative="1" as="geometry">
            <mxPoint x="330" y="240" as="sourcePoint" />
            <mxPoint x="150" y="320" as="targetPoint" />
            <Array as="points">
              <mxPoint x="330" y="290" />
              <mxPoint x="150" y="290" />
              <mxPoint x="150" y="320" />
            </Array>
          </mxGeometry>
        </mxCell>
        <mxCell id="ljEpmhRt66cEGAsof3XZ-6" value="All requests (excluding /api)" style="edgeLabel;html=1;align=center;verticalAlign=middle;resizable=0;points=[];" vertex="1" connectable="0" parent="WIyWlLk6GJQsqaUBKTNV-2">
          <mxGeometry x="0.3512" y="-2" relative="1" as="geometry">
            <mxPoint x="36" y="-13" as="offset" />
          </mxGeometry>
        </mxCell>
        <mxCell id="ljEpmhRt66cEGAsof3XZ-12" value="All requests to /api" style="edgeLabel;html=1;align=center;verticalAlign=middle;resizable=0;points=[];" vertex="1" connectable="0" parent="WIyWlLk6GJQsqaUBKTNV-2">
          <mxGeometry x="0.3512" y="-2" relative="1" as="geometry">
            <mxPoint x="226" y="-13" as="offset" />
          </mxGeometry>
        </mxCell>
        <mxCell id="WIyWlLk6GJQsqaUBKTNV-3" value="&lt;b&gt;NGINX Proxy&lt;br&gt;&lt;/b&gt;&lt;font style=&quot;font-size: 10px;&quot;&gt;Docker container&amp;nbsp;jc21/nginx-proxy-manager&lt;br&gt;&lt;br&gt;All &lt;/font&gt;&lt;font style=&quot;&quot;&gt;&lt;font size=&quot;1&quot;&gt;HTTP(S) requests to the server proxied to frontend and backend web applications.&lt;/font&gt;&lt;br&gt;&lt;/font&gt;" style="rounded=1;whiteSpace=wrap;html=1;fontSize=12;glass=0;strokeWidth=1;shadow=0;align=left;spacingLeft=9;" parent="WIyWlLk6GJQsqaUBKTNV-1" vertex="1">
          <mxGeometry x="30" y="120" width="267.5" height="100" as="geometry" />
        </mxCell>
        <mxCell id="ljEpmhRt66cEGAsof3XZ-4" value="Main Server&lt;br&gt;&lt;font style=&quot;font-size: 15px; font-weight: normal;&quot;&gt;Web servers, database, local docker registry&lt;/font&gt;" style="text;html=1;align=center;verticalAlign=middle;resizable=0;points=[];autosize=1;strokeColor=none;fillColor=none;fontStyle=1;fontSize=20;" vertex="1" parent="WIyWlLk6GJQsqaUBKTNV-1">
          <mxGeometry x="214.5" y="20" width="320" height="60" as="geometry" />
        </mxCell>
        <mxCell id="ljEpmhRt66cEGAsof3XZ-5" value="" style="rounded=0;html=1;jettySize=auto;orthogonalLoop=1;fontSize=11;endArrow=block;endFill=0;endSize=8;strokeWidth=1;shadow=0;labelBackgroundColor=none;edgeStyle=orthogonalEdgeStyle;exitX=0.5;exitY=1;exitDx=0;exitDy=0;" edge="1" parent="WIyWlLk6GJQsqaUBKTNV-1" source="WIyWlLk6GJQsqaUBKTNV-3">
          <mxGeometry relative="1" as="geometry">
            <mxPoint x="363" y="235" as="sourcePoint" />
            <mxPoint x="460" y="320" as="targetPoint" />
            <Array as="points">
              <mxPoint x="164" y="240" />
              <mxPoint x="330" y="240" />
              <mxPoint x="330" y="290" />
              <mxPoint x="460" y="290" />
              <mxPoint x="460" y="320" />
            </Array>
          </mxGeometry>
        </mxCell>
        <mxCell id="ljEpmhRt66cEGAsof3XZ-25" value="" style="group" vertex="1" connectable="0" parent="WIyWlLk6GJQsqaUBKTNV-1">
          <mxGeometry x="160" y="570" width="429" height="152" as="geometry" />
        </mxCell>
        <mxCell id="ljEpmhRt66cEGAsof3XZ-13" value="&lt;font style=&quot;&quot;&gt;&lt;b style=&quot;&quot;&gt;&lt;font style=&quot;font-size: 12px;&quot;&gt;Backend Docker Utility&lt;/font&gt;&lt;br&gt;&lt;/b&gt;&lt;span style=&quot;font-size: 10px;&quot;&gt;Distributed to servers in which you want to launch containers in. Manages the launch, stop, and restart of Docker containers in the current server through the database. Stand-alone, does not launch a web server.&lt;/span&gt;&lt;br&gt;&lt;br&gt;&lt;span style=&quot;font-size: 10px;&quot;&gt;Start with webapp/backend/dockerUtil.py&lt;/span&gt;&lt;br&gt;&lt;span style=&quot;font-size: 10px;&quot;&gt;Configurations in webapp/backend/configurations.json&lt;/span&gt;&lt;br&gt;&lt;/font&gt;" style="rounded=1;whiteSpace=wrap;html=1;fontSize=12;glass=0;strokeWidth=1;shadow=0;align=left;spacingLeft=9;spacingRight=9;" vertex="1" parent="ljEpmhRt66cEGAsof3XZ-25">
          <mxGeometry y="22" width="403.5" height="130" as="geometry" />
        </mxCell>
        <mxCell id="ljEpmhRt66cEGAsof3XZ-20" value="&lt;font style=&quot;font-size: 6px;&quot; face=&quot;Lucida Console&quot;&gt;&amp;gt; Launching container ubuntu22fresh...&lt;br style=&quot;font-size: 6px;&quot;&gt;&amp;gt; Stopping container ubuntu22fresh&lt;/font&gt;" style="rounded=1;whiteSpace=wrap;html=1;absoluteArcSize=1;arcSize=14;strokeWidth=2;align=left;spacing=7;fontSize=6;textOpacity=70;" vertex="1" parent="ljEpmhRt66cEGAsof3XZ-25">
          <mxGeometry x="359" width="70" height="40" as="geometry" />
        </mxCell>
        <mxCell id="ljEpmhRt66cEGAsof3XZ-27" value="Container Servers&lt;br&gt;&lt;span style=&quot;font-size: 15px; font-weight: 400;&quot;&gt;Runs the containers&lt;/span&gt;" style="text;html=1;align=center;verticalAlign=middle;resizable=0;points=[];autosize=1;strokeColor=none;fillColor=none;fontStyle=1;fontSize=20;" vertex="1" parent="WIyWlLk6GJQsqaUBKTNV-1">
          <mxGeometry x="267.5" y="520" width="200" height="60" as="geometry" />
        </mxCell>
        <mxCell id="ljEpmhRt66cEGAsof3XZ-28" value="" style="group" vertex="1" connectable="0" parent="WIyWlLk6GJQsqaUBKTNV-1">
          <mxGeometry x="360" y="310" width="320" height="140" as="geometry" />
        </mxCell>
        <mxCell id="ljEpmhRt66cEGAsof3XZ-1" value="&lt;b&gt;Backend&lt;br&gt;&lt;/b&gt;&lt;font style=&quot;&quot;&gt;&lt;font style=&quot;font-size: 11px;&quot;&gt;FastAPI REST server, served from port 8000&lt;/font&gt;&lt;br&gt;&lt;span style=&quot;font-size: 10px;&quot;&gt;&lt;br&gt;Located in webapp/backend&lt;/span&gt;&lt;br&gt;&lt;span style=&quot;font-size: 10px;&quot;&gt;Start with webapp/backend/start&lt;/span&gt;&lt;br&gt;&lt;span style=&quot;font-size: 10px;&quot;&gt;Configurations in webapp/backend/settings.json&lt;/span&gt;&lt;br&gt;&lt;/font&gt;" style="rounded=1;whiteSpace=wrap;html=1;fontSize=12;glass=0;strokeWidth=1;shadow=0;align=left;spacingLeft=7;" vertex="1" parent="ljEpmhRt66cEGAsof3XZ-28">
          <mxGeometry y="20" width="290" height="120" as="geometry" />
        </mxCell>
        <mxCell id="ljEpmhRt66cEGAsof3XZ-24" value="&lt;font face=&quot;Lucida Console&quot;&gt;&amp;gt; GET /app/containers&lt;br&gt;&lt;/font&gt;{ &quot;containers&quot;: [ ... ] }" style="rounded=1;whiteSpace=wrap;html=1;absoluteArcSize=1;arcSize=14;strokeWidth=2;align=left;spacing=7;fontSize=6;textOpacity=70;" vertex="1" parent="ljEpmhRt66cEGAsof3XZ-28">
          <mxGeometry x="250" width="70" height="40" as="geometry" />
        </mxCell>
        <mxCell id="ljEpmhRt66cEGAsof3XZ-29" value="" style="group" vertex="1" connectable="0" parent="WIyWlLk6GJQsqaUBKTNV-1">
          <mxGeometry x="30" y="310" width="301.49" height="140" as="geometry" />
        </mxCell>
        <mxCell id="ljEpmhRt66cEGAsof3XZ-0" value="&lt;b&gt;Frontend&lt;br&gt;&lt;/b&gt;&lt;font style=&quot;&quot;&gt;&lt;font style=&quot;font-size: 11px;&quot;&gt;Vue 2 application, served from port 8080&lt;/font&gt;&lt;br&gt;&lt;span style=&quot;font-size: 10px;&quot;&gt;&lt;br&gt;Located in webapp/frontend&lt;br&gt;&lt;/span&gt;&lt;font style=&quot;font-size: 10px;&quot;&gt;Start with webapp/frontend/start&lt;br&gt;&lt;/font&gt;&lt;font style=&quot;font-size: 10px;&quot;&gt;Configurations in webapp/frontend/src/AppSettings.js&lt;/font&gt;&lt;br&gt;&lt;/font&gt;" style="rounded=1;whiteSpace=wrap;html=1;fontSize=12;glass=0;strokeWidth=1;shadow=0;spacingLeft=7;align=left;" vertex="1" parent="ljEpmhRt66cEGAsof3XZ-29">
          <mxGeometry y="20" width="262" height="120" as="geometry" />
        </mxCell>
        <mxCell id="ljEpmhRt66cEGAsof3XZ-23" value="" style="shape=image;verticalLabelPosition=bottom;labelBackgroundColor=default;verticalAlign=top;aspect=fixed;imageAspect=0;image=data:image/png,iVBORw0KGgoAAAANSUhEUgAAAhsAAAGcCAYAAABwemJAAAAAAXNSR0IArs4c6QAAAERlWElmTU0AKgAAAAgAAYdpAAQAAAABAAAAGgAAAAAAA6ABAAMAAAABAAEAAKACAAQAAAABAAACG6ADAAQAAAABAAABnAAAAAA7QYBdAABAAElEQVR4Aey9V5BcSZam55Faa4GE1igAVQWUruqq1j3T3Ts93bNL9si1MZIvQ6PZ7JrtG7kv+0I+0UjbpdmSXBqXK2hjMzuruDM707qrp7ururREVaGAghaptZb8P4+8ichAZiIzkYEMRP4OS0TEjXv9un9+4/rv5xz3mwo7ID311FNVc3NzxxcWFk6EoqITYX7+qF4bwsJCbSqE2oUQaoShdvGP99rsZAImYAImYAKbIqBuJYzqb4Q/dSij2jASUqkR9T+D6n8u6vV8KpU6X1xc/Olbb701vqmzPEQHFVyn+txzz9VNTk5+QY35ZYmLx9WYJyQq9qpNluo6Pz8ftC3M64+k/dKv2s779Ke4yf+ZgAmYgAmYwIYI0Nmo7wmpoqJ4HO9JRbzqr2hxe9yoLkjbbqjvQXy8LxHy04qKir957bXXhhe/L4iXpQ74Ya3NotXiRTXUV9RgX1E9ntJfMaJhZmYmzOpvmtfZ2fieV75zMgETMAETMIFtISDBUVpSEkpKS0OJXst41V+p/haFyZzK9ZY6q5/o809k/fjlw279eCjFxunTp8vUQN9aSKX+UBX4phqlDAExPT0dpiYnw9TUVPyzqNiWn5FPagImYAImsAkCCI3y8vL0X0VFKCsrS8THtIbIf51aWPhXGjD/5blz56Y3kf22HvJQiY0nnnjiBblA/lD0f0fUGhWHEcbHxoLcJhYX23oZ+eQmYAImYAJbTSARH3KrhKrq6iALB6cYkMXjz+SK+VfvvPPOq1t9zlzll/diQ1aMmuLS0v9WBf0jQTiKtWJ8fHxJZOQKjPM1ARMwARMwgXwikIiOqqqqxOJxURaP/3NuZub/kLWDgNS8TXkrNs6ePdsgN8kfS1z8fRWyGdfI6OhomJDQsHskb68nF8wETMAETCDHBLB4VEpw1NTURJeLBEeftv1juVn+t3fffXcwx6ffVPZ5JzbkKmmVq+QfSLb9d6pR3cTERBgeGorxGJuqoQ8yARMwARMwgQIlQFxHXX19qKyspIbDGo3/U7lY/he5WHryqcp5IzZeeOGFyrGJiX+oAv0DAaokFmN4eDjOKMknYC6LCZiACZiACeQbAWay1NXVxdgOlW1c1o7/tbqy8n989dVXJ/KhrHkhNh5/4olvy/zzjwXk4BgiQ5YMpqg6mYAJmIAJmIAJrJ8AU2mxdFQroFTpisIR/v7777zzn9afQ2723FaxobiMgwLxT2T2+U3WxBjo74+zSnJTVedqAiZgAiZgAjuDAFNoG5ua4todCkv4Cw3o/57iOa5sV+3jPJoHffLvfve7xSVlZf+9zvtnCvY8PTQ4GIWGrRkPuiV8PhMwARMwgUIkwNIQeApYMVvC44QExx+179q18IXPf/6Vjz76SF6WB5seuGXjzJkze1TpP1U1X2IK6+DAQACKkwmYgAmYgAmYwNYTYH2OhsbGwJRZpV/Im/C777333s2tP9PqOT5QsfHYE098s0groMma0dIvlwlBoE4mYAImYAImYAK5J8DCYE1yrWiabO+8VuD+4J13/jr3Z02f4YG4Ub70pS+V1Dc2/k/yGf1TLSle3dPd7diMB9XCPo8JmIAJmIAJiACxkXgU5FapKiku/v1dHR2VJx955OUrV67o6aS5TTm3bOhBaR2zc3N/rmq8ODoyEgYVn+FFuXLbqM7dBEzABEzABFYjwKJgDQ0Noaa2ll1+KeHxXT3o7fZq+2/F9pyKDc02OaYolO9LXBzq7+uLimorCu08TMAETMAETMAE7o8AMRxNzc24VS5LDHxds1Uu3F+Oqx+dM7Hx2JNPPlU0P//XioRt7e7q8uJcq7eBvzEBEzABEzCBbSHAYmBt7e1Bq472zBcVffODt99+KxcFyUnMhpYc/5p8Jd/TVNZGhIantOai6ZynCZiACZiACdwfAabG8swxLXdeXZxK/f7ujo43Ojs7L91frncfveViQ1Nbf0euk3+rQNDKbgWCelrr3dC9xQRMwARMwATyhQCCg8BRPVW2rKi4+Hd3tbdf6OrqOreV5dtSsYHQkPPnTyYnJ0t6e3riYiJbWVjnZQImYAImYAImsPUEmLiBhUMPdisuKS39OxIc57dScGxZzAauk/mFhf8soVHWI6EhN8rW03COJmACJmACJmACuSOgmSqtra1YOaaLUqnf0NNjf7QVJyvaikwIBpXQ+A9ynZT19fZaaGwFVOdhAiZgAiZgAg+agAwF9OP05/Tr9O9bUYT7tmwsTm/9pYJAW2VyCfNeenwr2sV5mIAJmIAJmMC2EVDsRmjXLBU9RbZHQuHF+50We1+WDRbsYh0NpreyKqiFxrZdFz6xCZiACZiACWwZAfrz2K+rf6efp7+/n8w3LTZYgpyVQVmwy9Nb76cJfKwJmIAJmIAJ5B8Blq2gf6efp7+n399sKTc9G4Vnneikv8fKoFNTU5s9v48zARMwARMwARPIUwJMi0V0aLXR/ZNTU+VdnZ2bChjdlNjg6a08VE3POkmN6HknTiZgAiZgAiZgAoVJgAe4FRcVMS32xbaOjte7OzsvbrSmGw4Q1Voae7SWxruKVG1ZNK9s9Jze3wRMwARMwARM4CEiwMPbWNZcgqNXfpWz77333s2NFH9DMRvf/e53iyU0/lT+mxamxrAIiJMJmIAJmIAJmEBhE6C/X+z3W9ABUQ9soMobcqNI0fwPyvu/6u/vd5zGBiB7VxMwARMwARN42AnE+A3NUiF+o7e/f0rxGz9fb53W7UbRehoHZcf4SOunV8aFu9Z7Bu9nAiZgAiZgAiZQMASaW1oQHBMSEKe0/saV9VRs3W6UhVTqn8iMUjk4MLCefL2PCZiACZiACZhAARJAB6AH0AXrrd66xMbjTzzxbeX8m0ODg36K63rJej8TMAETMAETKEACPM0dPYAuiPpgHXW8p9h44YUXKjXN9R8z9WV0dHQdWXoXEzABEzABEzCBQiaAHkAXoA/QCfeq6z3FxtjExD9UJgcHFBTq2Sf3wunvTcAETMAETKDwCaAH0AVKBxd1wpqVXjNAVI+Nb9VT366MjY1VsVKokwmYgAmYgAmYgAkkBJqam0N1dfW4Hkd/UI+j70m2Z7+uadnQNJd/oAOqhoeGso/zZxMwARMwARMwgR1OYFEfVC3qhVVprGrZ0FTXBk11vTo+NlbXZ6vGqgD9hQmYgAmYgAnsZALNsm5UVVcPS1Ac0FRYRY7enVa1bGhKyx9r97rh4eG7j/IWEzABEzABEzABExCBRZ1Qt6gbVmSyomXj9OnTNcWlpVcmJyaae3tWdcGsmKE3moAJ7AwCJcXlWrW4RNPhJ8P8wtzOqLRraQImsCKBltbWUFFZ2Tc3M3Pw3Llzd01dXXG58o49e/6eVMh3CAplPq2TCZhA/hFoqNofdtWfCXWVe2JnPz374J7AXFHaEPY0PB32ND4TikJxGJ9hkR/fK/LvKnGJTODBEOAx9DU1NVWp4uIBLWP+SvZZS7I38FlC44+mpqaCnuy60tfeZgImkAcEmmuOh+NtXw/T8xPh086/DiOTtx5YqarLWyQ0ng5tdadDkawb/eOXwtz81KbPX5QqDg3Vh0JD5b4wNTMU+seuhImZOK1u03n6QBMwgQdHAL2AbigvL/8jnfV/zj7zXTEbmu76gnY66gW8slH5swnkF4GSovJQXlYfyktqA+8fZJqUIOgaPheu9v4i9I6eD7NzmxcalBux0V57Opzq+K1wsOULobq87UFWx+cyARPYAgKLuuHooo5YluNdlg1NX/lDHhw/MT6+bEd/MAETeLgJEGNRWdocyktr5fKYD5NyfUxMD8oFM7usYsVFZaGirCFUlNSH+fkZuUj6o/UCUTMzNxaPmZLLpm/0Qhib7A4jU51hbmEmip7y0nrlRd4jiucoCtVlzfHY8el+WSpWdrWUFleEqrLWKDDKS+tCZVlTdA2NT/con6FYPsQIeVfpO95PzVKOPpVnYlnZ/cEETGD7CKAbFpqa9Jtd+EOV4tXMkiwTGwoMLdMd4nc03dWrhWZS8nsTeIgJpOQYraloD+11Z0JzzWF12nVhYX4ujEkA9MkqgYViciY9Ww1B0VZ3KrTVPhqqyhvlGpkNIxO3dFsoVh5toWfkfLje/6tQVlwV40UaqvaFrqH34/ENVQfC3sbntG8Io5NdoVT71Fft1dmLw+h0d7jZ/6asIJ/E+JJMnFWyYuxveiG01ByNmytLm8KB5hdCUVEqXOt7TdsWQmvtCZXpMZWhJeY3PTsahiauhVtD74Xh8RvaYz4zS783ARPYBgKsKqonw7PI1+9IT/x9BYouxWIsExslJSXfUvkaERtOJmAChUEAS8H+5hfDweaX5G6plFWARfqKJDyO6e9owJJxvf+1GHPRok79WPs3Qr1iJ2Zmx8PU3Gioq9gdyiRCsEDMaObJ7cF39LkmHttWe1IWhgFZG96S1aFZAuTRUFKsc8yMhlnFkhSnsJLUh5bU8WiRwFoxOtW9DCwBpqVFFbEcfIGwIY+SVIVeK0Jz9eFwVLEpCJdp5UtsCMKmpfaRUFHaGD7r/lEYfoDxKssK7w8mYALLCKAfJDYaF/XEv0++XCY2NEf2D+c1+2RycjL53q8mYAIPMQGsGggKgjkRGp3D74fbsgaoew97mp6RteARWSOeDcOyXhCQ2V73mDry/bJMdIcbg2+GEVkN6qPF4ukoNtaDAjcHwao3dTxTYvcp//b6xyRa9oSa8l13iY0xCZBr/a9GAUM5J2Rxud7/iqwWEjXFNWF3/ZOhsfpgGFTQ6PWB16MVpbXmZNjd+EToaHhSbpzbMc9sd9B6yup9TMAEtpYA+oFZrEXFxbhS7hYbTz31VNXs3Nw3bdXYWvDOzQS2k0CxAkfrZKWoVkzEyGRnuDnwZrgx8Ea0MuhmIAvGnhgfwSyQoqJiCYIOFTcl98qn4XL3T6MAGZUYYL/q8tZ1VWVOcR49Ix/H4FFlFarkFmmtOxndKqUlVXflgUtkcPyq3Dq98buZufEwoM8IIIRQvVw1xI50DX8ULvf+TMGoE1GQVFe0SiydDPUV+6JrCJHiZAImsP0E0BG1dXXfRFe89dZbMQB0aTaKlMiLKmKZrRrb31AugQlsFYFSuSPK5fLA2oC7Y1xBlcRAYAWgcyZWo6y4OpQpjqO8pC4gBggeHZvqiwGdlIOOfl4BoOtNWDPm5qdjHAV5ETzKGhyUARfJRhIxJLhscN9MzPRFocHx1CNdl5AOTFXZnUzABPKDwKKOKFvUFbFQS2JDgR1fIbiDebJOJmAChUEgHTjJ/DLSvARA8h7JkZ1khsAUofvA8uOy93twnylHLLNEC/enzJRa/Jzeuvy7zP383gRM4MESQEfwe0VXJGdeEhsacnyFRTmyf9DJjn41ARN4+AgwNZRgTSwMFZo6yh+JaamVJQ3R/YDVgNVHp2aHZUEYDym5Uyq1QihBoaQi7btRi0Q8cJP/UbYoevT/tKa44mYhYJSyE8xK4n25ykia0ffs52QCJpAfBNARcVFQ6YqkRDFA9LnnnqubnJp6asqBoQkXv5rAQ0OAGR9NWn1zdn55YPe0hMPw+PUYrEkQJgtl7VFAJfaLolRpaG94XGtp1Gm1zstxNsf4lGaKaMpqU9VhTUM9HmevDE3e1OeDMbAzl0Bwvcxrmi1WDKbmMg12UrNmcPWMTNwMtYolYUoua3WwNkh7/akYy8F6H0OTt6NQymX5nLcJmMDGCKAntJroU+iL1157bTiKjYmJiS+mFB0mwbGx3Ly3CZjAthNgemhHw1lNBT2xrCzD6oQ/6/ph6B27oMDQt7Uy50uho/4JBXvuj/ETlZqqOq44jpuDb2mmx9UoVjqHP9RslIMKGt0djrR9VTEdQzEmgmeh5DIhNpgNg3WlUtNZ92ndDZlTtM7Gq+HW4LsSOx2hsfJgqNhVLyuG5vGXs1hYqb57R8Go52KMSC7L57xNwAQ2RgA9oUiqYvSFjvyLKDb04JQvLczPh2mLjY3R9N4msI0ECJBkka1iPZtkpcQzRgjOnFCw57W+X8bgSiwgrMTJjJFhCQsW9aIzn9Z6GqRezSK5mCrXehmPaSXPBu03q5ki10Jt5Uxcb0OrgcV4DtwzbGdq7ahmuRBwijDpG70YhQwWiCQhInpHPg0zWneDfVZOC1rw69NwpecXEk3H5S4pjUEllLNr5EMdsiDLxqMSHa3SICUSR9e0qNf1KJSGZflwMgETyC8C6AncKegLlSwtNrTh8ZkZIsYdZJVfzeXSmMDqBFgunGXA6fBXSrhVECS4JoblDpnsHdQ6G63RUsH+iIBxCZFM98usFsxiZc6JWU0j1e0AEVFTsUuriTbH+wMiYzbGeIyFqxIwLPDFjBaOGxi/IsuElinXv2QaK+dBgExMaanyoFVLp9LTW9menVip9NLcTyWgPoqxGeSBpYOZLazZ0Td2SVN4W+IUXVxEY5M9+n418ZKduz+bgAk8SALoCXRFaVnZ45w3bdlIpU7MaqOTCZjAw0Mgc/rnekqdDrZcPZAyJbdFY/URLcL1nDr4Ka1zcT0GhrKWRU15exQVuGbo6JnKOjOx/PlJiI5k2fPM8hB3sZ41MBBFPO+Ev+yEhWNsqiv+ZX/nzyZgAvlJAF1RVl4e/bsli4t57Z222MjP1nKpTOABEcCwWapFwBoq9yogc5fcHgScpuI6HAgVFgPD6oDQcDIBEzCBexFAV1QtLOxFZ5Ro0Y3jOiA1O7v8yY/3ysTfm4AJFBqBBc1MuRQ+7fqeLByHY6Am1o70Q89uhB6t4Dki64KTCZiACayHwKKuSKEzSuRXOUHUt90o60HnfUygsAngBrkpC0a3hAWPoseyMSOrBg9ks0WjsNvetTOBrSaQ6Ap0RomirU7oLqIbii0bWw3a+ZnAw0iA2AlmpyQzVB7GOrjMJmAC209gSVdIZ5RoJZ2j8zhr+XMyARMwARMwARMwga0gIF0xr2U1ilKpo0WybDRYaGwFVedhAiZgAiZgAiawjACGDOmMIgmN2mjZWPatP5iACZiACZiACZjA/RFY9JzUFmk5oPTTlu4vPx9tAiZgAiZgAiZgAncRQGcUycBR65VD72LjDSZgAiZgAiZgAvdJAH2BzuBZzrZs3CdMH24CJmACJmACJrAqgbTYIFrUyQRMwARMwARMwAS2ksCivohio9qzUbYSrfMyARMwARMwAROIBNLLalTjRkl5hQ1fFCZgAiZgAiZgAltNYFFfpBAbTiZgAiZgAiZgAiaQMwIWGzlD64xNwARMwARMwAQgUGIMJmAChUkgJcMl/+Y18WynPkStpLgi1FfsC1XlLUuNPDbdHYbGb4S5+amlbX5zfwSqy9tCfeXeUFxUHjOaFdvhiethbKrn/jL20QVDwGKjYJpyaypSXFQWqstbQ1VZcygtrlZETyrMzU2E8ekB3Ti6w8zc+IZPVFxUGspL6pVf5dKxU7MjYXJmSJ/XjhgqShXr6aP1oYyyZCRmbk/pePJZTyrRTZB8eM1M8wuzsRxJvVY63+zcZJicHV61cyorqY7149gkpcs3ovJRx5VTeUlNLFNKgiBJlGNyZjjML8wkm1Z8TdenTvWpWPo+XZdhtdGYHhF/KOxveiHUVOyOnK73vxq6Rz7ecaKjsrQhHNv1jXCw5fNLnC73vBw+vPHnYWz6/jrCla6V6dnReK2sR9yVl9SGCl2TPFmXlNl+ccM6/isvrQsV+m0lKft6Trbn+rW97nQ4vee7unekRd3YZE/44Oa/0T3jZ7k+tfN/SAhYbDwkDZXrYlaWNYb2usf195g6qgNRcJQWVUlrFIWZ+YkwIbExOH4ldA19GG4PvbOhEUtj1aFwtP3Xle/hpWrcGngrXOj6vkRM79K2ld6U6YZ8tO1rYW/T83d9faX3b8LFrh+sSwC11D4SjqkMNRUdy/IZm+pVHt8PtwbfittXOl/f6KfhQuf3w8D45WXH8oHO4kjbV8Pexue0/H/p0vdDGtVd6Pxe6BlZXWw0VR8Vl6+rTO1Lx/WPfRaP43Wt1FRzRFy+Huqr9i3tlj7n98PI5C3V9RvhyQP/dahVfXlsfN3NPWHqyj8PgxPXlvbfCW8QY801x8I+Ca8kDY1fD8XFy0Vn8t1GXmsrd4djaoPWulNLh3WPfBQuqt2HJm4sbVvtzZ7GZ+LvAoFPmpgZ0LHfDzcGXl/tkLu279N1x28rtSh0s6/nuw7I0QYsG7sbngx1lXviGWB8qfflHJ3N2T6MBCw2HsZW28Iyp2S5aKo+Fo7v+mY43PKl0FJ38i4rQnK6GVk4BtQJchM5f/svQ8+wRsoy0q+VECsdDWfD4/v+IJpZk33rK/fHzvta39piA2vI7oanw6MaNWUnrB2UoXf0fPZXyz5jWdnT+HQ4s+/vhsqypmXfDYxdCb0a8SdiY6XzXe39ebgpcZQtNrAu7G/+XHjiwH8TOurPLOU7Md2vkfO/vafVpShVouMeDwdavrB0bN/oRZn4r4e1xEZKI+FdOt/j+34vionkYMQbwqmqrEWi8dGl7yo0ukdI1lftvy+xgZWgofqgBFZDcsowOHb1Li5LXxb4m7baR8Oje387tNaeXKppt67HYblo1iM2WmpPhNO7/04oWbT4DU/cDL3D5zckNjg3FoXEqpZ9PS8VzG9MYJsJWGxscwNs9+kbq4+Es/v/IDzS8Z3oOlmrPHTEberE6uSbrSptCW9f/X80cv9orUNCZWlTaKs9rY5v17L9WjTaZPuNgTf0COK1XQbLDsz4wM2am+29xAajrtaakxIajRlH399bRFRb/WMSQb+tjvz0UmYIssu9Pwvnbv07+azXHt32j38m18b5sK/5BXUWaasII8MmWYAYkc/OTy7lm/mmrLQ2NFUdjtanZDvn7VVedP64i3BRzYkrQovlgqdmB/U3nOy+qde6yn2xY9sl61eSPrjxZxIbV/RxbXdYsn+hvJbJBdYui0ZD1YFlVcIqyG8EgTotd5aTCZhAmoDFxg6+Eog1ONzy5XBi17eWhAYd07gC6HpGPg2jk52RDsF1rTUnQk1lh8bUqTiyxSUxMnUrmuwx06+WWmqP6+Z7Sp3p8kutorQxbq8t79AocHOm/bqKvTJhPxIu9dSuaUVoUdnZL/GNr1bWjWxvrDqoUel/IfP880t1w1+OBeRDdcD3EkCca3J6MAqE0cmuKODYhqDD3YQ4S3fibF2eGmQVaqw5vHRevkXY9Ix+Eju4uYVpuaj+WkKjLMBoQkLjYudfy1pytxtoec5rf6KDRSR2NDyxtCPCioiDnSU1gkTGweg+KS2uWmLBGz63SQBjAeoePrfsO38wgZ1MYHkPsJNJ7MC648rAvcDIP0l0cJ/c/v/CFXUiI+oEU+pGqspa4+j71O7fWjIZ447Y3/i5cL3vV4Hgw5USo+rW2lOhSR1UdsJ90yrLBkJks2KjRH73lppHYjBk59D72aeIn3F1tOjmT9zIViWC4I5LoBFLQgdMQqRhWUBoIDjWEyBIECmipFcxIViLktQoqwWCYzWxwXdNskhlph6du3fkk7gJi8b1/tfkjrmmtm1XLMBQnBmQBMFmHuf3GycQrVq6pjLdJ5m5tMoViXWjZ/gjtfBOk2GZJPzeBO4QsNi4w2LHvcNkn9nJ0WHelFvjg+t/GoYnby7xwP88OHE1VJbIZ68RHaNvUpNG15j8VxMbBCe2SWxULcZJ0AmSECGktMn59IZNzgsL6TgRbvppV8ojoXPoA+V4942dIL42uVuI2idlHhs3bPA/Rq4HW74YTnZ8W4Gdd1xDWBZwnSDSVnN/rHSqwbFLsiJ9Eg40vxQtEezTUL0/igmsBtmihamcCI06zTJJ0vTsWOiTVYNYDxJWJAQR7hTKUipRViNBOTLVGZhZQ2LGESIz8fVPaQbMyFSX9q2QMDuiurVpFstwFENwZl/aOhFXMRP9R77tijuhnKM6nqmOCFG2J4GPtDtWMgIgMxOxH5wnmVEzTx4SuCsFDVOGSlnDEMhV5c2Kc6jQLKkpzfwYCqMTnbFuc/PTmdnn7D3laJXrjOubRLm5rmBJObHWcd1fEofx6b6clSMXGfPbrCrTNNaqPdEFSp0IEMcKR0wJM3iS39B6zs/10qBYIe4zJanyaHnjt8I9xeJ3PQQLZx+LjcJpyw3XpFhxAkmHwMFYG5hOmp6Sujw7gh6vD/wq1OomVKU4DBI3d6ZprpYY+bXVE8+QntrHLAk6Rm4+3ITSJmf5vTdock53WqkoYmo1cuc8dAATM/13FaVVs1CwbJAQU0mHx9TejSZuvLsbn4pxC821d6w1sPlUbgr+kvzXmzdTarGIjEzeFpcD8bAKibqm6kOqX3OcbpyZFx0c3yVBhXw3KAsGlo1E5PDdodavaJbM15YOvT34dvjo5n9csiIxc+ARWaoS4dgly1Dn4PsKEH4kHNDMjSpxHZAQeufqv4id+8mO34prVbCWQmZilke1ZtPMquP/+NZ/kPvme7GjPblbMUASNKQJdbic+2rfzzMPVbscj7FCyQyGGV0bHymPz7p/lLFfKs7W2dv4bJztgOAhAJbZJOnrbzCMTNxWgO/bEr2/lDXoWhQ+GRls+dvmmuMxXiNxDVI/OuFqWQCjgCsqiQxw313rf2XLz5+LDLm2GUgQP9RRdybOcqpQjFOxlmKantd0bIkNZqNd10yZm/1vSFimXayrlkX3EqZfP773dzVT6/koXrjXTCu2aFii+KZmf13u/UnoH72sLO4eJKyar794aAlYbDy0TXf/BWeNiuygQcy/e5qelnvkVXVeU8tO0jn0XrypJiNRbhLDE7eW7ZN8IB4EFwqxDUliBI8f+5ime7YtBlVuxuQ8oNgDYkewmDDdlGmtTTVHZZV5PTlVfEXMcMNH3JBYA4EOlOmtmxEbdDKP7vkvw56Gp3T29NoYBGYyBXc9AaGxECv8l3alfLIkNhB9DepUcf2wtklmwqpBUG+SovtGVg0ES5Ki+0r1PtL61WSTgnBn1Yn/WD1/ehMzU5h9lFgq6sp3KxbjSXWSJ2OHGfeSOGNqL+U4rOm9dEjZiQ6FP0TkbbmPSAii/bLUJMKEEfH1vteyD43nYS0QpqaSiP25OfDmsv0aJURPSeic6PiWzrM8TiXZkZE2nSQuuQ9v/rlE07u6MnPTgcGW83AtJKl/9LMoKvZpZlLikmxejFW6Mbj5AOgk/1y/0q67NGOMGV+HFMNVp9isZICQeW7E3V5xPn/rP4WP5WodHL+a+fWy9+UldXFacEVZnaxcdyyA7MQMLNy3dbI6vnftTxRLdHHZsf5QmATSd8zCrJtrdQ8CTOXsH7kYFxNKdu1oOBOePvhHcaoqU1a5aSQJk3CX3BW4WtJ/b8YA0eT7zNeGyoNRUNDhkxj5EpvwWfcP4yg82bdWNyJMztlTUpPvV3plhNU7dmFp4atmTd1tk+DAhJ2ZGrQGBVaPpAzUl6mlC2Euc7d1va/RSJ8ODxcKJnxSEhD6wY0/je6GdWW0wk7ctHuGP1lycbALI3j+MhMjaTr2RDzx3bQEI7EamW6vzGPW+x7r0r6m55Y6S45jWjOd9pwWGENMzMgFk+3WoQOK382Ox/3We7717IeYPLHrN8Ljmi1F5079cVngqqGD55XPtDvC5qQsNWn31h0X03rOs5F9cJ0Ra5S4Bjl/7+iFcLH7B1HwJXywtCGocanke2rQNfWYZlWd1Iw0BABCg98rFqN+ifPJ6SFtW4hWUALFmcaO1Sx7ob3MelZoxhSWK4QGgni59QJr1a54PqbcZ06lzszD7wuLgC0bhdWeG6oNfvRLMmW21T8qv/tj0VpAx3yg+UXdKI5FKwTrWPQQxKi1KOgUGcnfK8XgTwXJZQbQ4UJhcaw+3Zj7JBSwMjCqxjLBSLFFncm1VQJNs883pWNZy2BE5a/XdEziE7BuEMg6priBJBE8SkwHidEvK2hy89wjV8hGUomYHGr9osz4Ty2ziPRqxs65DQSErnZOWCDEhidvSGAcjbtVy1XAjBNWmUxWSSVWgXiK9KqT6dwIIsWFQqd/PylxpxBfwaqnM7MTYWySFWMnwg0Fm87PzURry6HWLyxZYDgfgahXexSnIkHCQm1bmbCMHWr9sjqs9KJn1PGGTPgXe34Qxqf65LZoiQta7W16NgoRWOHWudb/K10bd2KOtrZMJ6MLJRn540LjeuZa6NPfmAQ58SrpAOhTurZPLrmutrIcW5UX5dyjdWwOZVi5sDBd7v15uKY/4jWwpB2XNTL5PWP5gDPWTxYxWzml5D4bVCzVu7o+P5ZlbS5ez3tkPUtinbACHdQaM1w3D4u7aeW6eut6CFhsrIdSge7DqOxG/+vhvdL/N5zZ/3ejCZ3OnxsQN/ia1nYtef1itF5ww2DGx42B1yRCPlYntPoaAnFUp9Ff2hybhheFxsiF6JrhpoxwSVwpjFp5f0Mm9Hst001uxRrh9o1fjCNJxAarJ7YiLGSOT8QGHQ+xGokpnxVQmR2AJSBzpc/1NC2rdNZX7ZWoSccgJMewYiej2iRWItm+mVfcIIiGRGxQRtwXBER2j6SnUPK5WQIk6eiiC0VWjfVMs71XmchrUJafK+pgEISsEUGAKIuLEdBHTAQdTEvt0WVig8XQ3rjyz6IF5F7n2Oj3FWUN0ZJCeUhY1j68+WdxQTmsLTyHg+ebEOuSxH3gHmJqcC4SQpy1YXDtJAk+tB1Wrr6xT2VxuRjFBt+zH9f11d5fRJ7JMfn0yvouWCim5kbC9CJn6vP+tX8dRRsWCX7PJboe7wSHy80nzvXivprYwDJyte9vwttatbZLggSxD48ze/8gnNrzt5esGfxuGeywaioMnQqXgMVG4bbtumpGQOOF7u8psHFQJutvxmXBERqJS4LppYlfntUy9w+9IJPxD8Ol7p+uOmJjqmtbPWtrpGedJC6UxMeL8CB+IxEbaZPzqejrX880WPLlQVrdEg/M4ogzNBSzQfwHI20ECze2Vlk1kgdDMfpEMCFOCIzdSGKkulJq1jm5UdLh3K/goN64Ug5rJJ+4fYjPwJWC2EAAMsJEcCSJESgck/VQku2beeU6ON/5VwoI/Zf3Dv7bzAk2cQzi8K3L//eSOMTCQ0eI0CAhNJglhdUsERtlxTXqyOri9buRWRPrKR6iBktFfGaQDsBlgnBOYg765NrBQoU7CgFMO+Jy2WgA9HrKsnX7LOg386s4kyjJk1lFWGoS1wfXBkHIBI8nFjDcqwj61RKxYPwWEalJ/Axth7upXUHjexTwS6ooq4/isFxthpXIqXAJWGwUbtuuu2aM+j/r+VHsNPfJTE2wGMtdN2g1xEy/LL5Vltam00OQfHjj39y1FkRRjMQ/Hd0iSQHoDLAATM+Nxk3DmnkRR8/qPAjWTJucWXNjfSZngvToaHqZ7inrAgGGlI2ZJzxnBBN6i1YMTVwoBEfiDuKcdN4btWwk9ch+Jfj1xK6/FUezyXLn2fus9zPuir4xrQAqi88dc/VumZ6PaFRZnhZU8q0nMzzIN46q5eLaihHhuOIfuoY/yBuhka7fJdXxkt6ykFxttPLsUnBheakEppikZ1CkZ+2wP4lriY6eAN57LaWfPmJ9/5MvVg1cO0kaV+dI7BAuHRKzofrUoSauFLYRcIuoRhgnnTfb8yXhNkPMpgVtkWaaNcff/YGWF6ObsyRVJp48cuCJZTPXYM9vfbXEFGuu6URoJPtxfQ/oLxEbtC3xWsxws9hIKBXm6+pXS2HW17VahQBLhmNxwJTO+g50/HTYxFOwHDfrVRCgxywQXBM8j4GR5vvX/2TZVFkCwtJra9yZWkonT95JQijwmZsOooa0EZMzYgHBQQwGN3HEBp1BjNGQWZYplAiNZIn0Uc3o6Bn9OJrhOW6jlo2k3LgV5mTqZeQcWeiGSxwHTxXF1cCI8H4SbhQsFYnYYGSMJYOHxzHyw9KRzAhh1E5gaHoEej9nTR+LYMGvnm+J0TPPgcGqRlwOM11gUarl3OkEi9QZlpVUrlDs9HTrFb7Y1CbELL8JfgdJSrtQPl0SNbQJFrRMVwrXYLLWTD6vuYH1bo8sMnv1cDgEOYMJBgL8XhBvWAjLdD3eSZvjSzwQv6PMhKWoVLPXnAqbgMVGYbfvhmvHSAeTPn/47/HN7qo7Gw4qMJAbfjJllJsoMzNuDbwd4ziSE9FR4kJJ4grYTkDYqY6/rRU3fy3ZLXYaTI9N0kZMztwAcaUwjRXXyOHZr0STLh0zy5LPKaiNciRuHCwgxJkwsmTbZiwbzLi41PNyDOJkSmliNYlPfdVnTMSf3P6LaHFJ6rTR1xEexCXzNXEl3OhJ3PhZV4MFunifJDouYjXu9zHpSX75+IqogPWZfb8v0/uZJRM+sUazGjXHBcpSmjHDZIfN9X3rrnac8STRnSlUee4Prsd9ClBNUhyla6SeJK41LCLEJY2vMwA6OfZBvTIDhWcj8VA4ppAjpEncCyLnGHycPaNkc6Ujz8QNluRQjJVEf06FTcBio7Dbd9XaMTpvqtbUtIzHm4/KvYHPmdkRJFb4Y6TNdNGu4ffjqP4RTUVMFgJjBglBmQSNkhAMPJwqM66A7cx0aVdsQ3ZK1qpItjN9FUvKvUzO6cXISmOcBEIC0cHot1ymdm7s1TIFM5uGRIeEBYR9SNGyoQ5gIwlzMEF+7177F4oRuC7NMh8FVDIrhPUfTrT/LXG6oCDa9zaS9bJ9WdekTwKCGSbtiw87I06A1SoZyWeOqmkTLCHJVMtlGRXIBxaX4km9rPvCtRLdYeJzQ2t24Cqb0eqo8DmqNUAy1x7Z6urT+SYzpjLzZmG39OJuy9f0yL6u2YfjWUNkPQHQmefI9XssFgeaP6/prL+v3+3BeDqENb93lt0fn+rV735av68n4vL8dx5muLzO6y0n1qhsPojHef2mnAqbgMVGYbfvqrVjpHx819fj1MJkJ2amECCYPbsBEzsWhFuK5zjY/OLSWgysMFhZfmcUx0wAfNrJQlFJvrhe1jP0xF2AWKgq+8mayzyndPNPRl+IIcQES2ZzHtYJmV94LK7myPnTj+3+eGnxMo5Ljk3Kd69XnjFyvusvFOz2ToyPuKAgN2a6EMyZNuUXq0N8Jhwf/aY6wduaEdN9ryxX/R4LCYGiafcSsQr1Yv5SrFuymBo3Z0QJ4iZ/U2ZnRMtszPRAICIiIz0lO71+CuukfHDjT8Int/4yxkdQd4IxYZVLsYEgJ9CzUlOsM9OdOq1dNywg0RUpCx8xRvmUcJewOmujRFuSEMxvXP5nCvB8NQ442H56z4Rmpj13309OJoA3+/6AmMeC4lTYBCw2Crt9V60d6yiUFFVG825y02TEgeDo04p+d42YFROhnlX53bmxptSfRBN23EoAndbW0AguSXSKxE9kr0SafM8r1pDEnYLVYT0m5yJGR/oj8SyNXrlICC7DxcNTTmMxVU6C0xBJiJEkrTSySr5b7RXxwEqpSSAmwaY8VZVnwyRWHHz6LHSEteHTrv8sE/Tm1r0Ymbod1zVhGXiEBuVNhFRSPhazQmTlQ0BdWkakWSflo70z689soczl1dP7peSSKIuWpuS4zFd41mpV02T2A9/B9poe/Ld8Wfo710Lm8Vv5vnUxdin5nRCbMS2r31odJOXm2o7Xmy5IxAq/jXwTG7WV7YsWs/TvminQXRIbmUIDlrGdF39z62GL9ZOZbOn7xR3hmX4e0524F36jzHbJh2t5PfXyPpsnYLGxeXYP9ZEEamGKZxZCssQy00KPd/xGXNSJNTW4CXBjLStJT+Hbr8epJ64DKj+u6HueC0HCUkLUfeYDwliBkFkujNZXS4yqjrR/dWml0o2anKPVRcGfjPKrmpp1c78jhhA6iA0sE8tSxj7Ltq/zA9Ncr/b9IsaFPKZnPyRiqUkzR050aHaKxBozOzaT8GlHV4qm07J8OCl7iiHBtQSHbuVsi/WUFRcArozMVCmBV6nFxhBASWLaY+bzdSh/m2JpeBgXgbTMJIHVXlmDOH6lRKxD9mwHAhTpwJPEtUhsTvJAtGR7piC+s21z7xANrfV6arDiZpJEx/hZz4/DbS2LvlpCIOLeSX5buHuwbuCOW2uNmtXyW+/2Ys0QQXRnrjK70rHETbAyKDFMrFuTmQjWhHP6QWkpiZGOGJxLDM2ddOd3dmfbnXe0zW7NYLkl11FctVcDj2QRL9bWSBIu22FZe5h671TYBJZfZYVdV9cugwCd2s3B1+NceJ5Vkh6JVMhk/3lFordodHNOroz0ctDlmlOPkGDaYRKvkV5QSiuLypxPYkYIfunke7b1aDEflvLmeSirpTE90KlZC0UlMQqbMTn3abEw1mTgeQuZLpL06pof3/caGCuVHUsHDx1jhsQBBc7SwXHuvY3PaXbK16M7ZaWnl66UV/Y2gkQZxe/SzToZTSf70G7EqfQtxqAk2x/EK7OPJvWXmXBjPH/4jxWo2h07X9ZsYOXRTFcSFqsDzV8QoqIwOHYldmSsgdKhmTzZQirJmzUdmFqKdSwJHuQaPLvv98INLYONSQ0BwMquycJtybGIFM7Jqqf3mxDg7bJKZJYTy9+5m/9ev53VH7K2d/TZ2OEnYmPpWUGaTp6OSbrfkq18PBahY5qOzTOO1ko8SO3TTq2vo2nv4/pLEmJ9b+ML4amDw3FmTUmqQpa10zEYnPtAkiLjNdarwZrFc1aYadI9/GG0dOFmZV2cZAVR8mLmDjzyLZYlqadft46AxcbWsXzocmIRonM3/51GQk3qqJ+JQoGb4m4tX8wfo1hGz4wyMzs9TJ/MVrnYlX4eBJ0BI0weepakpYW8xq4mm1Z8Zf2NnuHzS2KDmx1xHxsxOWNhwVXCFNfEsoIYikutywKQm4S5+YNwQTds/N2M2kkE0B1p/fVozeFmvpmbKB11jwTFpDrb7JF/2m10Pj60LDf1Wj1XysVj7Jm6nCyWhsgkQJag2Teu/F/xaZ5DWna9a+hDxVNgCWuIGbIK66OVv61raiZaLBBmWM24ljKvreTsCJtuWdd4Dg5TfknETvCk2v1a6wWxwfLtmZaO5NhSuQdL1dnd7yPMKRfXYebaGgQyIm6ThbySc2a/Mi0WCxUMlsSSfiOIgGRmVPYxW/GZeAimr/K3ViIQnDa6omnunbLCIRqT5xOxSmytWPO7whXC2huZgwjyTTO+Y2XKPhcikfvKcQVOH9ETiOf1j5ijhAX7s5z5FT0JuEtixKnwCaQd34VfT9dwBQJ0GvhmX7/0v+vx4P8xBlPSASQpPULUoj76lyRmd+BieefKv4irAdIpMHrDRFyVEUBHoGSc2bK4kFdyfPYr+/Xrppz59FmWRSa/ZKXG7GOyP1Pm9JoTd4TFpFxAWFbIP1eJJb2v9L4cnyMRp2EunqhF0wePa9YOs3U2k3ANsTJlnzqs7IQlCSGi3jb7q5x/xjVyQ5aLTlmqMmN66EAyBSnrKFyGi56ZwvWRJPZjxIvQYOou1xGPG18p0aY8zvzDG38eF/ZKrkvEBZYMxAv5MCrODpRl4TOek3O/CbcB1rpkdVLyw23Yq2XJmaWxVsIF2aM2xE2ZpHQAtB46qIDRfEm0zyW5Os93/qXin7oXi5WKa5kwO4UHyTFwgHNmvAntWFXRvMzik1knLFjMZiG+hngdFgdcLjQGdP/4nqwrf6VrYW2Wmfn6/cNLwJaNh7fttqTkjP6IPxiUL/2mHofdVsvKoYckIFrjIj4E8eHfRQyknwJ5UQLlNZnM344xHRSC0SvT5TIfI07MAp39vRKBhLfV6Vzo/P6SdYBjcBcwlZVgw/gIbz30KUlYMTI7Mbaz0uQldW6YfYkQxYWCTz0J6kyOHVI9eYBU4tfHnDyW0XGs93xJfoOy8HyqG3Wp4hDoTJKkgXd8ngriILsMyT5rvRKXcan7J7IE3FloCysAj7Mf0I18rYT1YGDssoIp7zBLT2keWzqMtiQYOAncZIG1ewXp0eHfHHxTS4j/szDU/g25zo6qs1EQq/4RAwTbRIQg/t6++s8l9m5F91tVWZsWbqqMQZXMELopIcE5d9U9HgNgKRgrzPJwvSQhFD+69R+ii2Z/00vRwsHy1kWhOIzN9EbL1RW1OcKDB4mx+BSJDp7OkMT0WCwRmSwQcWsFLccD9R/X9ezsVOw0k23945dkEXhfLXFHlCffZb7CCvfBha7vxyDs5DuenEsdJmb69Hu6GX9LiZVoTJ1upvspOWat1yFNAeZ6Tuq+1r6Z3xE7kywyRkzV21f+ZYxt2i2LCGKuTL89XXxhRL8P1tKhLrgMsYAmaXI6vR4Mv0WsijxQjWXNSayo2zn4XmipOy4ry/OyOO4JxbKSzOp+MyIXJNfRhWgZvTNASPL1a2ESSJ05e3ZhcnIy9HQnqrYwK+pa3ZsANyyWDca3mhYbGo3g+yaYTKNV1uHgmSSTs8uDueIsEN2gMmcOsGQzo9b1PDOEEWS9ZpFkBqAxiqbzwvrCd9UVbUsVSL5j8avMxAiUfREbBJzxZNhkifRkP9wdmT5+ykedktEV5uL1ni/JE9N1vW6mTAXOTCNaURQGmxEbtAV5Zq6tgdigTvd6nDwjfuqY6RtnpI0LJHEtEFTJPkknxewKysp+90owIgCxQYuoVSA2xJsOhxkyQxIQlDNJXEeNVYfj9cT1wQwOOsj+0Uvaa24ZNzjRFgjAzJS0Cc8YQQAwG2lsql8Ckyfl3o6rXabrkjbU0qETdEhniuigPTOtbgSzJtdW5nmy33Ouel1TyQJrfL/adZV9LJ9xSdLJJu4JtiHKsRDwXBtcflyPycyqWQlv2mAjC7XF61nn4JrfSGK6KQySAG+O5TpuqJRLUA8dLNcUVVwfPHcHyxFikrpkXlPp3+H1uC4P1k2uVwQFCfbkjwhnobAlsaFZcLT/gAQfxzsVPoHWtrZQUaEVfy02Cr+xXUMTMAETMAET2A4CidhwzMZ20Pc5TcAETMAETGAHEbDY2EGN7aqagAmYgAmYwHYQsNjYDuo+pwmYgAmYgAnsIAIWGzuosV1VEzABEzABE9gOAhYb20Hd5zQBEzABEzCBHUTAYmMHNbaragImYAImYALbQcBiYzuo+5wmYAImYAImsIMIWGzsoMZ2VU3ABEzABExgOwhYbGwHdZ/TBEzABEzABHYQAYuNHdTYrqoJmIAJmIAJbAcBi43toO5zmoAJmIAJmMAOImCxsYMa21U1ARMwARMwge0gYLGxHdR9ThMwARMwARPYQQQsNnZQY7uqJmACJmACJrAdBCw2toO6z2kCJmACJmACO4iAxcYOamxX1QRMwARMwAS2g4DFxnZQ9zlNwARMwARMYAcRsNjYQY3tqpqACZiACZjAdhCw2NgO6j6nCZiACZiACewgAhYbO6ixXVUTMAETMAET2A4CFhvbQd3nNAETMAETMIEdRMBiYwc1tqtqAiZgAiZgAttBwGJjO6j7nCZgAiZgAiawgwhYbOygxnZVTcAETMAETGA7CFhsbAd1n9METMAETMAEdhCBkh1UV1fVBO6bQGlxVSguKgszc2Nhbn7mvvPb7gzKSmpCUao4TM+OhfmF2W0sTiqUlVSrLCVhanYkLCzMPbCypFJFoay4JoRUCNMzo2EhzD+wc692ItqkvmqfOCyEofHreVGm1cp6v9uLi0pDaXF1/D2V6xoo1TU5NtWta3L0frP28XlEwJaNPGqMrS5KSnfPhqr9oaXmhH7Mlcuyr6/cF1pqH4k3+GVf+MOaBJqqD4fdDU+FytLmNfd7WL5sqTke9jQ+E8pLare8yKXFFfHaa6w+pCtx7VtNSh19a+1JsX1SHX/1lpdlrQwRj7vqHwu76h4PRer47jeVq7NsrTsZ+I1tLqXisR31Z0NVeYuExsLmssnjoxBSbWpvxG5FaYOuwadCc/URic3S0Kr7VVvd6VBSVJHHNXDRNkpg7TvARnPz/vlFQDfwltoT+iE/rR/18s6kpfZ42Nf4bKgoacivMuewNA1VB8Lu+idCVdnmhUJNeXtorjm6JZ1zdXlr7FzrK/fmsNZrZ11XuSc06SZfkiVG1z5q5W/rKneHDomFmvJdcQc6jtqKjlBd1rLyAcu2Shirc06XZWOdTElReWiXWKCD4pwbTVhTEERcH8V6f7+pWOWpLd+t66xpU1lVlNbF+oSF4jA4dlV53L/YaKo5Eq+18pK6TZVpqw+qLG0KtZUdUVBg0WqqPhY/j013h8mZQQmPY2qPg1t9Wue3jQTu/5e1jYX3qe9NAPMwNxjMspkJd0DcXpRcAin98MtCcXF5mJd7YHZuctmIClMzIw3ymZmbWNHkzk27SPvNyRy/sJA2RWdvI5/SIllZNJTlHInpPqXPsaOQ2XhuIe2eYF+dVeWYi/kVUVbuu3HfEpldp5eOT+pGPtzsi1Nlymda55hi95h3c/XR0FRzLMz1z+qGNqRDFvRdccxjqbw6B6NwGCQjSsy8xanypXIl50peYRI7a5V9Zn7iTt0X81oQjyKVCTaUhzpTl7qKvWGvBF/P6CdhdKpL9cGNcXfHwsi7JLbL3GK7zKuMKuUqPJYYa590eTJdEvBRfZTn3PxUUoVlr+RLW8MkfR2k25LjSPPazrUCp5l5XSf6XKxjGioPykLweLhd9E4Yn+4Ns8q/f+yy9oflHddErI94sH1GPFaqczyRzrDWNck+sC8rrQ176p/UVTIXhiZuyvw+vNgGOr5Y17TONTena0Fl3UhKc4ID3NWuWW2T5kQ95nS9zOpaSsX3M3PjoX/0YmTP+Vbnltkud0rWKOtZlQTa7cE0R65Rfgnz+pe+1spUnlm13/L68FvDgkl7JNdh/A1pe1vNyVBbtVfX/XB0AVLm7JT+7VToWi9W/lNL13s8v67deV3fXMPx2ln8PjmGcmX+npO8V2vrkcnbUVTgKikvlQtrMeGa7Bu7EBok/tpkHRqauKbyjidf+/UhJpD0NA9xFVz0+yWQjOxacatInNCJ949/FnpHLsQbEzcwRhrcBLlxMvLoGfk43tgzOwpGsdwkhuVjHhi/rK4iFa0A3DjZnxsc56CTTRUVhalp5TN6XvnciPm21Z5WVRZC1/CHsQwch0AYlf+Wm0573aMaNbdF3/r8PPu9H7hpJYkRLmXEbVSmMk9LzPSNfary3FC5Dur4x6JVY0/D02F2djJ2PnWyKuATH568EbPBhFtWXBe6R87p+NFQX7FHJvFHZeqt1+eROGLl5pukSpmAW2tPaVS2W0VPqay3dexHYWK6P5qFGeHS0VZqlEvHSWfYPXwuYNXY0/ikWOyJdZ+YGhCLj2O9k7y5kcOKEXu5zo8AGpq4rnb5JHbkK/Hg5o01q75yf+wYxqb7Qs/wR1HM0M71Gr23y3xdqtEk7YipH/GQJMpFfeBMJzskLj3Dn8S6w7WmYpfKOBPLT8czMH5FbXs+cupoeEKWDFk1VO7JmZEwonat0zUxMz8W24mOv7HqsATfkSg4yWdgTNfZ6IUoDJMy8HqvazLZl2sEgUP7LszPhT1ycXFdICaxVrRUH5dVryqKmoGxS7oeJALu0XnRQdMubXWnZPkTd4mY4clboVccJmYG4nUNB9oFKxnim7/Z2Qn9bi6lr6uq3WF8ql+iqydejytx6x7+WMJoJKlKfEVUNlQeiNfBoK5LEpahpprDUQDSeVeUNoYZxdh0jXwgfldVnqB2aY/tVqnypKRXR6e7YrvNzo/r/I/omjip4+oiH0Te4DgWkzuJfJvUNlg8i+X+mpYooV0H9bvj/M1qsxLilSTicblNSdANTlxVO1bpmtofr+GRidsq04fx2qceq7U1og+rT6XqMaXzZKeJ6YEYs9EoywbXU7/azenhJ2A3ysPfhvddA25UexueiR0JHWyZbkr7ml6INzhu+tys8KnSmTN64Sa+Wx02N4vMhFVklzpmbtIcV6qb/K66s1FwwiS+hAAAQABJREFUIFg66s9EUy43c27MDdUHdJ7n1YHv0s2qTGLgVBQjHEsi/3Y6Evl3ETn49A80f14dYYc6wpkoXjLPj3DY2/RsvJEhDKrl797X+NxihzoTOzRGh4zosS5wI6NMNRUSMIsJM/6uhjMxloWOZK+Ob9GNFgEm+0UsUzJSxfy7S3516svINqTmoiAiT1hhBj7U+iWZiI/qfDOqQ4U4Pisesq7o/LMabWO1wZKDFSY74bLh/LhZZiQisB4QLwIH4iGyecCtTfx36fxYHSgz4inGQcg3TjsfULsiOGjH0qJqiaCGOCLn3AiqPXKDIPAY2RYVFcvt9GRoq0+3J+U+3PKl6G6AYVlxbSxfY9WhyJPz0eHzSn3pnHY1PB7rT/7sR3tUKd5lSvWpLGuMlh06q+y01jWZuS+CCNESX8U0lkHiiXMdaH4pVKttCTglNmBf8/NidkL1vSMWM/NK3sOdfRuUBxYCRHOHruMOueC4jsuxpOj6p92xIhTpe+IPuJYRa9ENUndGv5ODMcu1uCXnTF5xayJMESGTs4NxMx3z3sbn4/lL1O5YNJprj6ltcI/WxP33NDwb64YglT0qlo3fLL9lri/aA7HPdZZt1eD3SCwSvx3qhpCJvyXF8tSUtcXfE9dtuwYDRRokkF+LrA7H274RhSPXAr9f3LXwZTRwr7ZGSHCdIqKzE+XDMsb1XM3gwqkgCNiyURDNeH+V4GZWpZtkr0Yyl3p/qptLYxQY3LjpEBjBTc2Oh4vd3483wb1Nz+nmejrekCZm+pdOPqqRzfhUn24Q7fEGSGeMiRTLRZFuRs0aNY1OdoUL3T9QZzYe8zjQ8oU4mro5+PZSPmu9GZvqCVd7fxFH1NxAMxPiorKkMdwaejtc7/9VFCVNuuHPaHTH6KhaN87W2rlwc+CtaHlh/7USwbU1le3h9tAH4VrfK9Ekn9INMFoxdCDxDi3qgAc0Srzc+7NoSTjS9mtxZNpTdj5mTafeqZE2JnEsP490/KaO2x1uDr6lzroqipqu4Q+i5SezLGmrEH7sdtX3l6Fz6P3YEexr+lzsYJLYhEweiCcsR+NidLH7x+pUpsPBli+q01Q9JOjq5COvUHte73tVjN7RCLUmnr9s0YxNB1GvTqBHlplr2oeO9diuv6UR75HQN/JpLB6Wk1tqK6wlxK4ca/+6xGJbbFMC/TCn832frBV02pkJtwrWm8Hxa2FMncmu2kcD7Q/HflkcMtNa12TmfuRzW3WhjoiOW+KKJelg7RdiB3ih8/tqH9q+VWX9hq65U9EakHndZuYHdwRnrQQt1xB1QTgeav1y7FgZzdOxEuDYN3IxXOr5SbS0HW75SrQoZeaV+X4lbnVqL6wwmYnOnrgRxBgC6k5aiNw+6/6J6jkV68L1xG+1SnVrqN4XuoY+DNf6X1UNUmF/84u6No/H317n0HuRMTExXPvD+j1mJqyZWP1w4F3o+oE6+j59flzi6dk4IJiSlQhRhRXrYtePtNdCvC526ZhBbbvR/0YUso/s+nbaUqe4mbXaum80fS1lliH7/YzuN4ig7Fiz7P38+eEhYLHx8LRVzko6qs5pROZyLBbHZeoekSDg5s92Rjy1GhFzgzmsUTqJ0Rs3b0bFmWla00Ex83c0nNVNZ7c6qyp9XRRvblUKCKODRHgkpmNM9EwhJS9u4OtJjHhGpzrjSC17/5HJTn3XrQ73ZCjXqHt0ujOa6Mdkyt5MIoiNmyw3Z4TN9OxMdD0wQ4CEeME8jgUAUz2JIEPqjHuFhNmdzh9LCh0Ovn/qmlhv4k4r/MfoG/P1rATfsFxFdKC4Bm4OvKHjS5RfuiPK5EG70FaIiGPtvxZzrVU7MJ0wbbZukgWG/G7Fjoz8GD1jgSIxisR9QIxJEkRLB4XZu3yxPuNyD1EfyjMtwcgoFyG5noTLCzM87h+OgVGlRra4l7LTWtdk9r7Zn4lFqipvjuVMOlZEycjUrSgksBysKjbEvUYcqTPXcmw3xUcM6z2iCMYIKkGKrrckDoR2pm1XS+vllv4dpKJwyswL0Uodkt8OvxtEBbFElClOkdV1ygCBxO+sWWKD7+6VKvQ75jou1+8VaxC/dYQjv2GEIWIDgYPbLakv1zLX3rhcHvFa4NqWqI/XtqyQG2nrlcrHeajTStfGSvt7W/4TsBsl/9to0yXUb1U/2DmNEHCj32lqYgHoELlJ0Jkyp/1a32vqmM9Hfy3m4b0yt3OzwS/Pj55RD2KBvwnFWhBXMaz4g+w0NHk93piInair2hPFBPvFc6osmdaIBbkeKB8dL+dZb8oO1EuO4zzX+38ZrRaM1ttlyt4rUzBiZrUEidUSzOblFkg69uz96HQoi8JMl9gMT9zSCPP9KDKy9+dzuux0E+tJqeiWoPNPEjd4RNUyjsqVhEChrRhqJ22F5aNTI146b1wr1IUOdKUUO9FYsDvH49vHqpJ0chyXPlv6Hedbb22Y2ph2czXH+JM5daBptnfTWOuaXKnsmdtiedR2uKru1FXk1ZbqnqNYy9z/7vfiLk4IqSRRToI00yJRgaD807aNpPVwi1dTEfxX+j3cyWHpvEJHfSkL9U0S1ww/83uJWvan3VVj1Si9P9cO6650yaKXHduR5B+vZN07BHVpU+a1vZG2Xsog4036OlZ9V6hyxm5++xARsGXjIWqsjRd1IY4+uXkw2gshLQ7SM1Tkm42BbeNRVOCvvz30buwEcJEcaPlcDAokKA6T7rhmS3wm0zzmUfJjdM1MhOw0Ntkt8dIXzfmMhjolStIjaC3UpJ2Jw0h3inPRRYP1Y3jmlvzEE7pZzkUTMvmTiI1Yr8WDGy6xDQQ+Xu9/LQbJdTQ+Ef3cBJyNaDSf3LmSzpEbtGI6Y33S59PMBY28k8QNN6V6wobETblIlp/YKesz8S1ReOmmjMUB4RbXBtBdHivPelLUfSp7dqJsU8ofa0O5/O6Ytuk4CNRTSeLIMfsY4jqmZofkwrgk18vPY0fLTAz87NMyS7fUHg21RXKlKOiRzhy+sE54UB/a75ZcPnQ08MKVgn6ZmV/nAkuKTkzyyywfbU7AINfh+c6/jJ1YDBZWm62UELqrXZOY7tMdW/rIdMeE2IJjmj3iiHoSEzApqwOxDriQIldxWi2lvx+JbgGu1fGpXuWLpUrxSXplRE8vjvBIXxeqrU4br9XF63a1vNeznVgZfijE96w3EazJDBLKOBSuRv4EkXK9xPLGjPj1pflk58t1Pj0zFn+3n3X/MAoN2gurwqxcU7giN5I22tYr5U2AKW1MzIxTYRCw2CiMdly1FkMyg8bgL43w6TjwazdW748xFYzAmQqHCZUAs8aZvmgVwKzONLcFmY+j+XnyptwDB8PupqfUGfXE+A46Vnz7dIKZCTEyLOsGMwQYVWJ+Zsw0KhM6HVyT/PzTMreyUiOdDTd3fLiYhTFFM0Vvt0TClEy2rYvR/pn5r/aeGxOm810K4qvXObEwpN04jEHTIz5cEgQtMhuCek3oHNSD2RtzC5PqnOrE5rA67PQMAczoROfvllsIgYHvnlk5SWc6pFkuzTX9MTiQemNGx4+OubkzdtarlTa9nWPCQpE64QMxrmBUHX3mSJy2I3iSYEQWumJlxTYxY7SZOQsnOQvboutLMxemFCBLpH+t4iamVS4sUcy6ocPf08QiXuRXG6+NRBhhMm9UfAYLXMGF4FXiQMizW8ffK6WFqGYhyB03rGsmpbrdScpN1x7XILEEzHZhGjLXXm9WvAbHIBJWuybpNjMTVh7M7jViz7VOXEX/6GcxYPFgy0uK0bgst1CLgh3bNVvkYhQQmccvf09sxJXoDiPgkWuITjfGG2mGB9cEnfhk7agCJh+N4pxOnADRxB21PL+NfeK6p4Ml1gmhnbhF1soltpusRrtjYDBaKKXA6tP6bfbHOAuOZeovwaTNujaYGsxvLUlcrwNiRjwLU7GH1HaVClRNFZcoLuVCstsGXjfW1itljCjlvsH9yakwCBTv2rXrH83OzobxsfWNxAqj2junFoxa6ASqyhvjaK1GLgVG//2ackhwGqNZbmhMS8S/m47FaIydWacCFzHbkwezH+gYKsubYtDWtEbQI4qdwHqRnRjZNGjEyvTPWwNvxvNTBkbXxBMQrBh934p1IDiyV2KDDgPTNd8TYIrPmBE8N0YCMHEHEPcxo/Ly+U6nfOfssTPTiJCZDNSDvAbHrkVRRIeKSKiUlYARLjdbBAkj+xoCSzXzhNHkQmo+WkHo0BFSiCHyorxwo4wsPMQNnumFzKopL6uPM2oIpkWQIGSIE4kjX3Xa7Atn1mUgXiBOG1T+mOkpIzEgsEliO5IaIcAWNMW3qqJZ51cZGWkrb6bOUp9sHjDmGOJVaKsqBctS5inFZRCYi4WJREfPOWlzZtGMyi1DB0u5aU/KCMMqnS8lPohEAn/ZjnCj86Zzx2pC3AWc6IQZkjMtko4dP/+Ezot1gesABpj2y0qrdX7iSuqjmJlVeUfUDrjAiCvRChExfxitdk3yXWaiU6Is1aUtei1SedNxPVw/XO+Uh+ufMmK1ScRkkgdCkvZPri04cS0Rt0L8BjNaJqeHdC2/pWv+dqw7szoiJ13LuOzS1+tCFI0cz4wU2pNrjPOvzS0piUSBGCEQYUG7UFbakD9ilViPhZS2tBCbcT3uR7slsRfVajuslrcV3IrApF2IK+J6JACV9soUG1zT6euT34KCu/Ubpz5c2yMSHphuss+fvjaC2vV6LOMyhmNXxG9y1bYmVovfCgMEfmf8lpd4yQJJXm0SvGWaVktwa3Z7RQD+76EhUF1dHUpKtH7RmbNnFyYnJ0NPd/dDU3gXdGMEGInRwXLjRQgwkqHzToK9yI0RJx0QnQDT57ippTun9DiSTgQRQAcwpTUUuKHPrmLiZFobsyCYo3+552Xlfmcsyg2vWiNM8iG4jHUIktEbZaMD5eZOJ4hLAD8HIz1uOEyZxGTN2hHcIFdKzIAhOr9cEfYzugFzg07iDeDArBtu5HSgMGB/ykOAJ+4WRvO4DQggpFyMLgnUJECSjpxAPUaysKH+CBhM1tUVYqvOjTzSImUmdkaID7bBOp5feXEOzPNQoSxwpXOGebaI4vwsjc6sA8QEAbDUJ81qJR6Upy7WCVcX1hvKk4hC3AlRiKnTmZjW4ldYfTLqS750ZOkph8Tz9Kmu/VF00WniLqDtEYd08JQfTpwDd0O1OugqBc6O6xhEBkG2zIpJvocVHRrtB2Mtu7XIAzHTuCz/e12Tme0f21H50h5wxH1wp671GtlPSiiwffm6FuSR7ihbdORCrBviJd1Wzep4m8VnIXKnPsCKbhUJOcQGPGZVP2bW0MkzOwUBQL2xdNGp34tbZj14j6Vtn6a6skbMdcVSRRfQ4vWX/k2mxQbbaV/Ok7QbQpKE2EUgUhcS1xHTWJkKy28iXZf41dJ/yW8nrksi8YtFi2se6w7ig/d3nV/xW/wOshkKZvxdrNzWvVEY4XKM5dC+mbywpjH7Z0LrlDA7Lrk/LBXUbx4qAq1tbaGiosJi46FqtTwvLDcl4iZYWImb35W+n8eRS54X28UzgQ0RIJ6AdTcQxbi+Sksq5P47JTHTHS51/0gzfNIWpA1lmrEzIot1bhC5TGVNW40ydijgt3E9FE25rSxpDtcHfrWj6l6ozZqIjUynaqHW1fV6QAQYabEiJUGU3VqzY6W4ggdUFJ/GBHJGgIDUyejKST/okFViB+UauCmX4f0KDQqNC4QYGWIucGlgSdspCcvnwnwqruDLFG2nwiHgANHCacttrwnLQBN/wR9uCps/t71JXIAcEOC6Zpo4cSZJrAbugCTQditOibtsXrPDdo7MSFMjPqxrRFPH5Z5ZzVW6FXydx4MnYLHx4JkX7BmJZ9hJJt+CbUhX7J4EmK1DoGp2sOo9D9zADgQD77REPJlTYRKwG6Uw29W1MgETMAETMIG8IWCxkTdN4YKYgAmYgAmYQGESsNgozHZ1rUzABEzABEwgbwhYbORNU7ggJmACJmACJlCYBCw2CrNdXSsTMAETMAETyBsCFht50xQuiAmYgAmYgAkUJgGLjcJsV9fKBEzABEzABPKGgMVG3jSFC2ICJmACJmAChUnAYqMw29W1MgETMAETMIG8IWCxkTdN4YKYgAmYgAmYQGESsNgozHZ1rUzABEzABEwgbwhYbORNU7ggJmACJmACJlCYBCw2CrNdXSsTMAETMAETyBsCFht50xQuiAmYgAmYgAkUJgGLjcJsV9fKBEzABEzABPKGgMVG3jSFC2ICJmACJmAChUnAYqMw29W1MgETMAETMIG8IWCxkTdN4YKYgAmYgAmYQGESsNgozHZ1rUzABEzABEwgbwhYbORNU7ggJmACJmACJlCYBCw2CrNdXSsTMAETMAETyBsCFht50xQuiAmYgAmYgAkUJgGLjcJsV9fKBEzABEzABPKGgMVG3jSFC2ICJmACJmAChUnAYqMw29W1MgETMAETMIG8IWCxkTdN4YKYgAmYgAmYQGESsNgozHZ1rUzABEzABEwgbwhYbORNU7ggJmACJmACJlCYBCw2CrNdXSsTMAETMAETyBsCFht50xQuiAmYgAmYgAkUJgGLjcJsV9fKBEzABEzABPKGgMVG3jSFC2ICJmACJmAChUnAYqMw29W1MgETMAETMIG8IWCxkTdN4YKYgAmYgAmYQGESsNgozHZ1rUzABEzABEwgbwhYbORNU7ggJmACJmACJlCYBCw2CrNdXSsTMAETMAETyBsCFht50xQuiAmYgAmYgAkUJgGLjcJsV9fKBEzABEzABPKGgMVG3jSFC2ICJmACJmAChUnAYqMw29W1MgETMAETMIG8IWCxkTdN4YKYgAmYgAmYQGESsNgozHZ1rUzABEzABEwgbwhYbORNU7ggJmACJmACJlCYBCw2CrNdXSsTMAETMAETyBsCFht50xQuiAmYgAmYgAkUJgGLjcJsV9fKBEzABEzABPKGgMVG3jSFC2ICJmACJmAChUnAYqMw29W1MgETMAETMIG8IWCxkTdN4YKYgAmYgAmYQGESsNgozHZ1rUzABEzABEwgbwhYbORNU7ggJmACJmACJlCYBCw2CrNdXSsTMAETMAETyBsCFht50xQuiAmYgAmYgAkUJgGLjcJsV9fKBEzABEzABPKGgMVG3jSFC2ICJmACJmAChUnAYqMw29W1MgETMAETMIG8IWCxkTdN4YKYgAmYgAmYQGESsNgozHZ1rUzABEzABEwgbwhYbORNU7ggJmACJmACJlCYBCw2CrNdXSsTMAETMAETyBsCFht50xQuiAmYgAmYgAkUJgGLjcJsV9fKBEzABEzABPKGgMVG3jSFC2ICJmACJmAChUnAYqMw29W1MgETMAETMIG8IWCxkTdN4YKYgAmYgAmYQGESsNgozHZ1rUzABEzABEwgbwhYbORNU7ggJmACJmACJlCYBCw2CrNdXSsTMAETMAETyBsCFht50xQuiAmYgAmYgAkUJgGLjcJsV9fKBEzABEzABPKGgMVG3jSFC2ICJmACJmAChUnAYqMw29W1MgETMAETMIG8IWCxkTdN4YKYgAmYgAmYQGESsNgozHZ1rUzABEzABEwgbwhYbORNU7ggJmACJmACJlCYBCw2CrNdXSsTMAETMAETyBsCFht50xQuSD4TqKysDO3t7aG+vj6fi5k3ZWtubg4dHR2htLQ0b8rkgpiACWwfgZLtO7XP/KAJ1NXVBTrN4eHhMDExsXT64uLi0NDQEFKpVBgaGgozMzNL3/lNCBUVFeHxxx4LLa2t4b333ouMYAXPpqamUF5eHsbGxkJvb+8yrlvFjvY5depUqKmpCR999FE8/1blfa98uF4QWOPj4/G6QTxwrVRVVcVD5+bmwrjqPjI6uuy6adQ+J1XmK1euxDKzn5MJmMDOJWCxsYPa/vjx4+HgwYPhrbfeCpcvX16qOZ3l2bNnoxB55ZVXQn9//9J3O/0NouLw4cPhsccfDzeuXw+Dg4OhrKwsHD16NDyubdHSsbAQpNRCZ2dneOftt8P1GzfCgrYxuq+urg59fX1RjGyWJWLj9OnTYbcsBbdu3doysUHZmiWWxiQkKONKCWvOM888E67oennjzTej4OHz0SNHwtT0dEjpIMRpZ1dX+PDDD8MN1R1h0av8ioqKwpNPPBFGRkai6Fgpf28zARPYGQTsRtkZ7RxrScdxQoKDEXlmYrR64MCBcPjQoSg4Mr/b6e8ZxZ89cyZMT02Ft995J4xqBA+rL3/5y6Fj165w7erVcP78+dDX0xMeeeSR8PnPfz60ygJCOiZB8tKLL0b3Sz5ypJwvqbyI0NUSYoprZpfqSsLKg/jCotMlgYGwmhSbkydPhq//+q+HI/oOgYYo++CDD0KlLCBPSMgmlpDVzuPtJmAChU3Alo3Cbt9N147RNCPzlpaWUKTOg5EqboLZ2dmlPDGx02EhXjCld3V3L43g6aRqNHKe0f6MoDluWC4a3jMinp+fD+06NqXz9KijZmSNNYDEiJg8ybtcVoQhuX3YZ3JyMn7f1NgYKnTuKX3GtVCtP1xDlE+ZhGaVmfPzPWVCICSJvBt1fFtbW9zEeflbzcx/SAKMfd95991YBg6is21T2X70ox+FX8oSRF1g8TWN8E+p0z127FiMVTgh8XFU+w4MDMQy0AEjXigD50zcVXCmE8eihHsrcdEgDmkHXFsck51g2a6y0ZFjPegWo8Q9Rh0pE59pB3hiwUAgwJFznjhxIjyiPyxbWCQ24ga6LivPyy+/HEUF53/00UejAHv+uefitUJdbt68Gbp1PsTZnj17woULF7Kr4M8mYAI7hIDFxg5p6I1UE0vHSXWUT8gEzsiUDnxaAuG9998P586di50VI1tGrIfUmfJ9Sp3hTXVYb8pF060O/qDcNbhmStRZ0uldkhn+ivz3dMYIBWIAEA10VAgZ3Dd8X1JSEo6ogz+jcyMYFtSR46L49NNPwzuyLNCpHtNIm86NPChrtfJApnx28WKYlQl/9+7dcRud6Kfq4F5//fXY4ce8Zf5/8sknQ11tbRQ3dMbU6+OPP17q/BNW7L9v374wr/rRcWaKoWLVlzojAhAb5IMLpU+Ch5E+Hfn+/ftjHRAdPQg1iRGYlirfn//iF0vuECwidMYwoNPfq/fPqtPGcoIwo56IHgRdkhAiT6kee/buTZdLZbwsfm+rDIgbrBW0IeWCA6IMju+rrsSd7NVxfN8gxtQRywTb2X+jifKRL9zJc7/yQ2xMiQOWD8TXPp3PYmOjZL2/CRQOgbuHS4VTN9dkkwSwKDz//PPRQkAn/JH+atQ5v/jCC2GPOhRiFs4oXoFOe0QWhXMKWmSk/qiCKNnO94gRBEGbOkXiDK5fuxY75oPqNOlcGb2fl4C4rTgHOubHtC/CgeOeVkwA1oTPPvss5s2+z2nbQQkYEuVjf8QI+X4iN0aNBMev/dqvxY4NsUOZptW50yHTUZPoDD//0kuhRaN6zv3JJ5/EEf8Lqiv1yk500Fh2JtSZUr8kXVWnPiArBWX60pe+FOM32PeGBMkrr74ahRHCC2sM1oRb2s576oGooOOFUZKoKy4sRFOtOD/z7LORUeft2+ETsccSkemGwKLx1FNPxTiOHtWVWAk6fOIjCCRFAFFu3D+Rv/IhsBQr0bMqMy4RRBFCYEziAhcQlgry2GyijHAvlpDCapIkRAcCkODazDon3/vVBExgZxCwZWNntPOGaknHSUdOwOO7ch/goqDj262OklE7HRkzDfrUkfzghz+MI2ncA/Uy1R+W5QBLASkZ7f/kpz+NlhHcDyQEwssywdOBIwAYpZMnFhDcGVgjcDlg6aDjxIpAjASdJHEAJCwcWDqwWtCJY4X4dQIo1bGTNy4KOsBvfP3r0eXBPoywESov/+xn4bXXXosWAQQJcRaY+q8o/iIzYf2g88cVkNkRY6WhTnT4Tz/9dHhcwocAyQuyrGCBwe2BmDmimA0sB4iaq8qb9/dKTBc9JFF1+dKl8H2xpZ4EcSLCarFOKLEPcRSIhR/9+MfRRUP+v/Wd74Qj4o+VgYTQeVeMEEBYX4pkZcLNQX6/Uv3rVB4CXa9JaCAq7zfR3lh/yuUSShJCDXcWZad9sZA5mYAJ7DwCFhs7r83vWWN895+psyPY79vf/na0TOBGeFOzEZji+ZgsGK0SB8RhfPWrX11yL2DSn1FnguggsS8m/ewOhm2ICRIdFKKAUS+WDUbCCAyEAZYRXA6MihE/Zfo+SeQ9plgMOjf+JpXPgI4lviOJhWAb4qV0MW8ETausCExjReSQ2IbYqZdYyk4cxznJL7MOlJcO/bYE2EEJA9wG++Qy4T2j+l+pcx+U4NhMItaC8yL0EBokppXyPhEbsKfc7Pd1iSkS7HZJhPTKSoFAImF1wgKTxKPQ6c9JdLBvLhLxJZhKETZJmtA5k/bFsuJkAiawMwlYbOygdif+gdgGOvPMxGdG/nTadBSIgVd++csoCDD5E0TIHxaHN954IwYtsj+dVv1ix0Z+tyVIcIvQOW4kcV4SeTKCf0HuGuIdMPUjKmInKdGgHVbNNpadfBbzYsd0rjpM76kj8SPFyqNSI++GRUE0K3H0kdwQWFvuSsqLPJLYjChcVGcsP7zHbYAoINYB98hXvvKV6LrAbTS4aF24K897bMCKQx0IrF0t0anDqkxCLKkH+16TJeiq6kHnvlKKdeGLNTiudNx6tlEeglBhhQhMEu0S2yGjXZLv/GoCJrBzCFhs7Jy2Dowy6Wzx+Wcm4gH4w+RNR8WouVYdB50oa3IQqPi8BADBjXSwWCPG9UdcAm6UZNRPh0MnzPebTVgJiOG4IDfED5U3roAzij1oVxkyhcRG88c6gSukh2DUX/0qTldN8kCIrFRmgjMJcqxQgCV/lAVXAO4T6orwwkLDsRflQsG98aUvfjEGviZ5Z75iVUjcGQgGEudmtk+S4EoHjRWD79ifc/E+SezDDJuP5Z75mVxCieWC/bA2rVSX5NhcvWLROSCBiDhEgCUJixV/CEZccE4mYAI7k8CdO9jOrP+OqjUjbjpMZh4QP8EIPQZbyq3ACBlXCZ0YboUvfOELsZMH0C25C7AyEBdRpc42jui1jc6VET2dHd8RR3BIgY5JR7oZuCWyHOC6wEVAUGoya6JVnRmj5s0mykj96IwPKj6DqaZsIziTcmcGNSbnIFYFVwTirGpRoHE8sRzPKfaBeA348T3xJJQVQTGqDpc0p32pBy4gXAiIMvgS34IbB+ZxpoY66aRuTE3FBUMsBfEX7MvMEmaMJAn3De3BNspPPZhxQrsSe7LeRF0QcLhd+NtIu8EPlw/15rxf+9rXYkwPgbk3dZ0liWsMoQbLzLiX5Hu/moAJ7AwCtmzsjHaOtWTGAVMjn9TI/Fvf+lYMZIyuEHWGFxWj8b6CL7EAELNBjMAZiRA6UEbVxAlwPEGJuFmY4vpFjeK/osBNVtIkH9ZzeFfWkPuxQCAI+KMDw8JCR0pnTXAjHRyiZrMJNxDigODW7yiYEisOpn/qQ4BndmKUzjoduJA4jhkldJisuUEnysybg4rTwPqB4ECEMDU4WZ2VdS8QHC9qYS+4wuaSZtgQC4PLBYsNMSmwpTPGvcE5mEL7BbH9TbURMRdYo3BXMX2WxD6vK37mJc2sIWaDWBXEBoKGdllvot4E+TI1F9fXW8oTYbmehKj8jd/4jSjeytX2lP09BaNiCcsUFcz84fpBoEZxs57MvY8JmEDBESjWyOQfcRPInMNfcLV0hSIBOjxmgGD6T2lESwwDHQMrYNJJJeZvOlkEB24EOjFiPZI1HBACmPnJg334DksEJnJmXTDFMllEa0j7MNMhCXSkEARtIljofJJEh0ysByN2ZnLQCRJoKh9C7Aw/Vp5Mg0XscE5cC9TjmuITsNTEpM4uOR95JInrmv3YH3HB8WzD4oCdBJFBsCd5k29mop7Un44VFogItiEMECHkh1igM2XBMoQGQoRzkXBnJB0va4lEq4WYcDyuE+oNH2axXFG8BWWAPZYN+BK/QewG7C+q/tSDdTjIl+8JpiXBn+M+FCemAVMuHDO9+j7JM+6o/zg3+cAIkQQL2pBy0gbkk5nIh/YkFoR64aphNVXyGZUg5RVLBgyZhUS5koQ4RNgmIiizXZJ9/GoCJlDYBBiIMUhMnTl7doGbE/P1nXYOATpIrBF0sIiQ1RL70MGwDx1tdqLTxPWBNYNppFuVMOlTRiwb2SJgK87Bxc85qNda+eNeYBlurBbf+8EP4syc5PxwIR/KiWCnrNmJc/DHd5nfw5W0Fvv4A11kn51v8jlpR/LejOUgqcO9ypKcb72viJSjmlHElGXEzU81VRhx42QCJrCzCDADkIGHLRs7q92XaotwoINaq6NlZ77P7CSXMlh8g/zge2IVtjJRPs69ksDZivMk9bpX/sRZYNXYq/gI3DlYZDI7zXvlk3DOPg/H8bdWWs8+Sf73yut+z7PW8St9RywJa3pgoXpNa6FkWjxW2t/bTMAECpNAYtnYvAO8MLm4ViZwFwEWzGK6LIGz/HDsDrgL0V0biIVhzRPcX4l77q6dvMEETGDHELDY2DFN7YpulgDuCWIhiDXZjKtis+d9mI9j1VUCWYnXybbqPMz1ctlNwAQ2R8BiY3PcfNQOI4DIsEVj/Y0+LJHhZAImYAIJgc0vXJDk4FcTMAETMAETMAETWIOAxcYacPyVCZiACZiACZjA/ROw2Lh/hs7BBEzABEzABExgDQIWG2vA8VcmYAImYAImYAL3T8ABovfP8KHIgeW2WRbbyQRMwATynQAzmZLl+fO9rC7f+ghYbKyP00O/F0KD5404mYAJmEC+E2CxQIuNfG+ljZXPYmNjvB7avfnhLnz88UNbfhfcBExg5xDAsuFUWAQsNgqrPVetTTRL+ge8Kh9/YQImYAImkDsCDhDNHVvnbAImYAImYAImIAIWG74MTMAETMAETMAEckrAYiOneJ25CZiACZiACZiAxYavARMwARMwARMwgZwSsNjIKV5nbgImYAImYAImYLHha8AETMAETMAETCCnBCw2corXmZuACZiACZiACVhs+BowARMwARMwARPIKQGLjZzideYmYAImYAImYAIWG74GTMAETMAETMAEckrAYiOneJ25CZiACZiACZiAxYavARMwARMwARMwgZwSsNjIKV5nbgImYAImYAImYLHha8AETMAETMAETCCnBCw2corXmZuACZiACZiACVhs+BowARMwARMwARPIKQGLjZzideYmYAImYAImYAIWG74GTMAETMAETMAEckrAYiOneJ25CZiACZiACZiAxYavARMwARMwARMwgZwSsNjIKV5nbgImYAImYAImYLHha8AETMAETMAETCCnBCw2corXmZuACZiACZiACVhs+BowARMwARMwARPIKQGLjZzideYmYAImYAImYAIWG74GTMAETMAETMAEckrAYiOneJ25CZiACZiACZiAxYavARMwARMwARMwgZwSsNjIKV5nbgImYAImYAImYLHha8AETMAETMAETCCnBCw2corXmZuACZiACZiACVhs+BowARMwARMwARPIKQGLjZzideYmYAImYAImYAIWG74GTMAETMAETMAEckrAYiOneJ25CZiACZiACZiAxYavARMwARMwARMwgZwSsNjIKV5nbgImYAImYAImYLHha8AETMAETMAETCCnBCw2corXmZuACZiACZiACVhs+BowARMwARMwARPIKYGSnObuzPOKQHV1daivrw+lpaWxXAsLC2FmZiaMDA+H8YmJMD8/n1flzWVhHjlxIrS0tobzn3wSenp7c3kq520CJmACO56AxcYOugT27t0bnn/uuVBTWxtFBlVfkMAYHRsLFy5cCJ+o4x0dHd0RRE5IbJw8eTL09fVZbOyIFnclTcAEtpOAxcZ20n/A525qbAxHjx6NnevFixfj2SsqKsL+/fvDPgkRLB5vvvnmkhB5wMXz6UzABEzABAqUgMVGgTbsatWamp4OH507F3704x/HXYqLi8OhQ4fCt7/97fDYo48GREhPT08oKysLiJOm5uaAu6VXrgasAImrJaWja+vqQltbW6isrAyjIyOhu7s7jI2PL52a7a0tLaFOrptpnZfvBwcHQ3l5eWhqagqzs7MxX/JH9DTqfJNy5wxoH1JNTU10+2BtGRoaCqlUKn5ub28PJSUlYUj79apMk5OTcf+qqqqYB64hhBPn4ZwcXytrDsexvb+/Px4fD/J/JmACJmACOSdgsZFzxPl9grm5uXDjxo3Q2dkZ9uzeHTtlOu/HHnssHD9+PBQXFcWOeVwi4s233gqffvpp4Jjde/aEZ555JnSoA5+TWCDduH49vCHLCGIF4fDkk0+GI0eOyFezEFLKZ2BgILz++utRtJw5cyaKh1/84hdhREJlt879uc99LlxXHq+88kq0rhw8eDCcfOSR8KHEEfsclih66qmnQoPyRvTMqxyXr1wJ77zzTswb4RPdRIpN4Xy4h8irRp+fefbZcGDfvjAjgUNe+w8cCAgmJxMwARMwgdwT8GyU3DPO+zM0yPLAHyKDv0Pq5J+SUEAkfPzxxzGeAzFAR97Q0BCtHoiFU6dOhS4Jiw8++CCMyXqAEDitbVggjsld87Q+z8ii8eGHH4ZbN2+mtz39dCiVVaJKVg/2aZHlg/0557P67qRiKRAqRRILByUIiDNBWCAkXnzppejyuSKBcU55Tk1NhWd0zJnHH49lwhJCngcPH46C4tKlS1G0nD17NlDefllCzn30UbR0VMqSwjmcTMAETMAEck/Alo3cM86rM+BGwELwwvPPB/XyoVzukkPqnHFrvPHGG9HFgPsBCwWdOu4T3BPtu3aFfbIMNMutMiaLAbNaCC79RGLkvKwdn3322VLAJRWulyghn8/U4WMR4bydXV2hSOfElcP7gxIYiAgsIa16HZfQKVF5EDaInmYJkUG5T7q0LyKGuBLK+NOXX45umYs653e+8514XspAmpdAOn/+fPirv/qrMCwLxl5ZYI4eOxbz+MEPfhDrw6wc3CoHFKviZAImYAImkHsCFhu5Z5xXZyDWARfIgjp9Ep3/nETDa6+9Ft59773Yyd+UFQJrA66UesVlsA+WB1wTZRINxF9cUkff0dERvvTlL0dXya3bt8NHshoQ10EMxrVr18IRiZgnn3gixm3clpsGFwnuGmIqeJ3WK2ID9wqWDiwgFRIou5UvbptqiRzcJLg9EB5YOG7euhXPT9kRKVhMHj19OrT8/+2dW2xcx3nHZ28kl+TyTl0ixbFkK7Lr2KQsJ07jKBbioL7ETZG8NAUK96loUKAJ0Oc++KUPdYEUaYAg6aOe6r4USNLYCQrFdqwoskKTkkG7shVTsmWJ1yXF6+5yL/3+h7vMarW8ibsUz+5vgOWenTNnzszvLDl/fvPNN/ItsTxN8UybT4aEhpKsJJpGkXBS25QkluTHIWFCggAEIACB6hNAbFSf8a66gwb6kZER97b5OXhxNkw43LQ4G3KalIhQkuXjS0884QkLOWAumNOmhIGsIEoa9DUdobqOmF+HLBFyMtVy0rPmIyGBoHsoyedC8SwkcHQsi4lEiRw35eDpiQSrQ1aWCyZ25Cei8hICkgJjJkp0P0156F33LCS1P23iImhOrmETQcXnCmV0TvWk7TqVJ0EAAhCAwM4TQGzsPPO7eketAJHlQn4W5ZIsHw9Y/AlZHF599VXP2qBBXqtWNJWhJN+IfTatIuvEexabQ34XOveYOYzKajBuFgdNt8inQqteNG3xGfO/+MqJE+4LVua6WSdkZdBUilbASKxInFy9etXFrG5ZVB4xPwyvjN1DImHR6pVlRecLSdM0mg6Ro+iSWUIkOErTkgmljPW5xa7TVI4Eiaw2qmvFtlN6BZ8hAAEIQKDSBPCQqzTRGqhPgkPTJYXlqAp+pSkRDdYapJX/qDldPnnypOfrIVGgaRRZD+R4KWFy1CwUTz31lCcyNGWhFS8SIloOq2W1EhASK6pTwkQCRdMlmiaRlUP+FIWlrUL6sV0vP46HbMpE0ywSPLKUaHrnhomWMbOUlEuaapHficqpvBxcFWtEsUVk9SBBAAIQgED1CWDZqD5jX91BPg/yxzhs4uLJJ5/0LAzy2dAgLYEgoSHRcN2Egpa2Pv/8857VodMcTBNmyZDTps7LR0MrQ75qPh2KrSEnUwkE+YXMmI+GksSG4mfIT+OGiRXVP6HpFTuveB2yfBSmdmT1GHr7bddvPiDfMKdQ+XQUnFUHzAFV9zhgUzWlSfmaMlI7nn7mGU94aEqm29orawgJAhCAAASqTyBk5vAXZVqXmZpU+wRmzT9DA3chcFa5Hsu5UlYFeTho6arK/5+t8JB1QbE0ZMnQS3uqaOoiZJaQuFkPNKi/b+W02kROn3GJChMqEbNk6PuleBnvXLy46rypKQ0F8frI6tQyVU27KA6GrpfjpwKMySqipLJTecdPWV0kGDQd85Y5tupaiSQlCR05p6psIUnQqC0STZoSUj8u2+qVEeuXnFYlXEgQgAAEIFB5AppGl7U80Nffn5N5Wv9RkiBQTEBTHErlHC8L5TRlopcG+8KAXzind/lHqB4N8hK1lUj64kpsqD7Vu9mk65TUTllRSBCAAAQgUF0CCmsgizjTKNXl7Ova1xMZhY6tJTIK5zWoF6ZCCnnbfb9T0XKn1223vVwPAQhAoN4J4CBa798A+g8BCEAAAhCoMgHERpUBUz0EIAABCECg3gkgNur9G0D/IQABCEAAAlUmgNioMmCqhwAEIAABCNQ7AcRGvX8D6D8EIAABCECgygQQG1UGTPUQgAAEIACBeieA2Kj3bwD9hwAEIAABCFSZAHE2qgx4t1Tfazup9tqGaSQIQAACu52A9jSasKjEpNohgNionWe5bk8kNLShGgkCEIDAbieg+L6Ijd3+lLbWPsTG1nj5trR+cXPvvefb9tNwCECgfgjIskGqLQKIjdp6nmv2xjNL8gu8Jh9OQAACEIBA9QjgIFo9ttQMAQhAAAIQgIARQGzwNYAABCAAAQhAoKoEEBtVxUvlEIAABCAAAQggNvgOQAACEIAABCBQVQKIjaripXIIQAACEIAABBAbfAcgAAEIQAACEKgqAcRGVfFSOQQgAAEIQAACiA2+AxCAAAQgAAEIVJUAYqOqeKkcAhCAAAQgAAHEBt8BCEAAAhCAAASqSgCxUVW8VA4BCEAAAhCAAGKD7wAEIAABCEAAAlUlgNioKl4qhwAEIAABCEAAscF3AAIQgAAEIACBqhJAbFQVL5VDAAIQgAAEIIDY4DsAAQhAAAIQgEBVCSA2qoqXyiEAAQhAAAIQQGzwHYAABCAAAQhAoKoEwlWtncohAIGKEAg1hVxjV6MLtUZcIFCRKmuzkmzOLS+kXSqedJlEpjb7SK8g4EMCiA0fPjSaXF8EonujrrOv27UejrlIq/3KBlEba30DclnnMgvLbu4Psy4+FHeJ8aW1ipIPAQjsIAHExg7C5lYQ2CqBBrNm9Hyx1+35yn7X2NG41cvrtnzsvjYXbA678ddvuNR0qm450HEI7BYC+GzslidBOyBQhkDroVbXfbwXoVGGzXpZDZ0m0h7tcbHDbS6Xy61XlHMQgMAOEEBs7ABkbgGBOyXQ1Bt1Tb1Nd3p5XV8Hu7p+/HR+lxFAbOyyB0JzIFAgkM1mXbAh6AL2Im2dgNi5yIp/C9aNrfPjCghUkgB/xSpJk7ogUAUCAYdD6J1ihd2dkuM6CFSWAGKjsjypDQIQgAAEIACBEgKIjRIgfIQABCAAAQhAoLIEEBuV5UltEIAABCAAAQiUEEBslADhIwQgAAEIQAAClSWA2KgsT2qDAAQgAAEIQKCEAGKjBAgfIQABCEAAAhCoLAHClVeWJ7VBYFcSiEVaXU9zj1tcXnITSxMuq01EyqRwIOy6mrrc3uZe2/At4KaW4l75VHb5ttKNwQbXFe123U2dtjg36KYSk1Z2yi0XlW0KNbne5m67n3OTS5MumUk65fXYdaFAyE3YNYvLi17dunevtbEh2OgmExNuIZ9/243JgAAEfEdAYiNnq/hZyO+7R0eDIbB5AgdbD7iT95x0V25ecb/++DWXsEG/NDWHm93DPQ+5L+x7zISJiQ37yzCTnHGD44Pu7YkhdzM5u3pJR0O769/T5/p6H3FtDTH7CxJ0c3ZeZQcnLrjZ1JxXtsuEyIkDJ1w2m3Gnr73mxhcnXEdjuztx8MvuQMun3Buf/MYNjA26TC7jouEm99jexzyhc/ra6+7DmQ9X78cBBCDgTwJ5cZGT2Ji3/2DsrwUJAhCoVQLtNsA/0HXULWeWXSgYsq1Rb+2pxSm18591zx/+ulkWIm44/p5noXiw6wH33KHnXNbl3G+vn7W8tJMF4nM9n3PP3vu0W8ok3LtT73r7jyjvucPPmfUi5X43+pZ3g2g46u7rOOzdNzoaXc073H7IhMVxqzXnRhdG3Udz11zY7ntP20F3T+we9/uxgVsbyCcIQMCXBGQhtTQvsTEXCAYRG758jDQaApUhEDPrRH9vv+toanf/8+Ev3GvXfuMyZo34/N5H3beOfNMd23PMvT/9gbthwqDbplmO7e0zcRByv/zDr9z5vDC4Nv+JO/npJ21qpdNFQhFPYKzXOgmNB7se9ETHZCK+XlHOQQACPiVg+kItn/MsGz7tA82GAAQqRKAn2uMOxPa70fkxd8lERSKd8Gp+f/qyWR0+dp9uPej2tez1xEavTbHsb9nnPjZx8eHNEZc2a4fS8NR7biY145aW7dpN7LR6Y37UpXPL7rgJmhGb3rk6+7FXDz8gAIGaIzAXNgPHXN7MUXO9o0MQgMDmCLRGWlxLuNVdX7ju5lLzqxfNme+F/C9aGuy8lVFqiTQ7+XcspBbMiXPefDba3MHWT7mYvSul0ssuaM6fzq2IEC+zzA9Nn4yYWHmk92H3xU897pbyAqdMUbIgAAGfEpC+MJ0xHzYn8RVPLp92hGZDAAKVIGB/DrypVdVlfxVuSfa5KCtoK0+C5hC6Uj7gOhs7bAqmz93ffti1NsbcxYl33KtXfuWtPLmlmpIPcgodjr/r1XOs95ib2TPjGkINJaX4CAEI+J2AdIb5hQXmgisOHH7vD+2HAATukMBiesGWoC64Vlsiq1chteQ/L6QXV5eoLurYXrFIzLU2tLqbqVn3rjmU/mF2xDWb1WNP8x4XDmmGduM0k7zp3hr9vZtOxj3fjc+YcygJAhCoHQKevpDOsDVpMyY4aqdn9AQCENgygQmLgXHdfCjkl3Gk8z7XGGq0VSchW0lyyH06dtB8OUbd6OK4V++YvV+fv+HlH+k4YlMpC25o4qJ7Z3LYzRdNwWy2EVduXnXnRs97Vo172hAbm+VGOQj4goD0hemMsAsGLwfNmUvzKrlNOHX5onM0EgIQKEtAy1C/fu+zLpVNeednzSrxXvySG1sYM8Ew5A633+tOHjzpepp6PMfPB7sftKWyYYudMegF99JFk4kpNzQ+5DmN/tlnvub2mSVjMb1k1x6yKZVO98HM5VUH07KNKMlUWy6MX3SH2u41sbOv5CwfIQAB3xIwXRHUapRA4HLYFMclWTbC4bBbXr49SqBvO0nDIQCBVQJy8pQI2GOrTj7bfdTyV5wwxhfMSrFww1tlItHx85Ff2HLXz7s/6X7AyligLhMjiq+hQF2K0aGk1ScXzC8jYEtfj+/pdw9ZIDDlpS1y6DmLr6EYG/Nm7VDSqpYrs1e9oF6FFS4Ji81xdfYjO5tbFSWyrJwdPeeiNg2TsCin8+Z4SoIABPxNIGK6wkumM8Jm0bikPzvhiK2LR2z4+8nSegisQUAxMF4Z+aUXpbO4SNLEwNjSyvSIpkPOm/+ElqFqOkU+5FMWfnzUzifTt0YclZ/G2U9+5y7b0lgthdVE7KxNoUxahNDZ5blVK2k8Oe1et5gdWgo7k7rp3Xo6MWORQ9/08qYtQqmSYm58EL9sUUpvekHDxvNt8k7yAwIQ8CUB6Qol6YxwKBR6P53J5MyygeOGLx8njYbAxgQ0XaLXRkkRQhW4S6+NkqY/Ppm/7r3WKrtk0ysfeVaMP5aQZaM0T2dX8om18UdSHEHA3wQ0Y2IpJ50RHBgYWDTZca0hr0D83TVaDwEIQAACEIDAbiDg6QrTF9IZXhxRcwy9VDB37IYG0gYIQAACEIAABPxNQLpC+kK98MSGzadcjFimVqSQIAABCEAAAhCAwHYISE/kdcVF1bNi2chkXtOJxsbG7dTNtRCAAAQgAAEIQMDTE54BI5v9tXB4YiMajb5uxxnEBt8QCEAAAhCAAAS2SyCvJzJNTU1vqC5PbJw7d05u6gONTU3brZ/rIQABCEAAAhCocwJ5PTGQ1xcrYsNjksudbmhowG+jzr8gdH+XEViJvbXLGuWT5sDOJw+KZtYaAU2fSE+Yd+jpQt88y4Y+2MnT+G0UsPAOgd1BILuccZlUZnc0xmetgJ3PHhjNrRkCmkKRnpCuKHRqVWxY0I0zlpmy+ZXCOd4hAIG7TCAxnnDJicRdboU/bw87fz43Wu1/AnkdkcrrCq9Dq2JDQTfM6vhKc0uL/3tKDyBQAwT0n8Hch7NucmDCJadvDRdeA92rahdSxkvc5kbmqnofKocABG4nIB0hPeEFDc2fzu+SsvIpkMudMiXyF1IliQT/Td2OkBwI7CyBZDzpxs+MuvR82sXua3Ph1rBtgEY8nDWfQjbnlueXTaTNufjQlEtOJfBDWxMWJyBQeQLSD6Yj5K9xqrj2W8RGOp3+uUX8mjZV0onYKMbEMQR2noAsG0qaDhh947qLvzNpYoPge+s9iZyJjfRi2qVMpGWT2VWhUWC53rWcgwAEtk8gPzsyLT1RXNstYmN4eDjV19f3cnNz83em43GFGS0uyzEEIHAXCGig1MC5dGPJficX70IL/HPLgqjQe+HYP62npRDwNwH9zpl+kFXjZemJ4t7cIjZ0IhgMnsrmct+J2gWLCwvFZTmGAAR2mIB+eSX6yw2e/DOw8jA2EhUbnd/hR8rtIFCzBKQb9PsWDARumUJRh8tO/vb193+QTCbvHx8bq1kodAwCfiOAuNjaE0NkbI0XpSGwXQJ79u5VmPLLF4aGjpTWdZtlQwVs8uQndsG/KihHKnWLJaT0ej5DAAI7RIDBc4dAcxsIQGDLBKQXvBDlgcCPy128uvS1+GRmefnHJjim2trbi7M5hgAEIAABCEAAArcRkF6QbkinUj+57aRllBUb5tgxb/9F/cA2aPO2iC13IXkQgAAEIAABCEBAW8lLL0g3SD+UI1JWbKigxdz4ob3NtrW1lbuOPAhAAAIQgAAEIODyOmE2rxvKEllTbAwNDc2YG/yPtGY2HC7r2lG2QjIhAAEIQAACEKgPAtIHXmwN0wueblij22uKDZW3ZbDft7dFfDfWoEc2BCAAAQhAoI4J5PXBYl4vrEliXbExODg4YQ4f/9Zi1g3Py3TNajgBAQhAAAIQgEA9EZAukD6QTpBeWK/v64oNXdgSjf6zvV3p7OoiIt96JDkHAQhAAAIQqBMCWoovXWDpSl4nrNtz2y1l/XTt2rX03v37R0LB4F9ls1nibqyPi7MQgAAEIACBmicQi8VWrBqBwN8MnD8/vFGHN7RsqIKLg4M/NbPGz9o7OlZ2c9uoVs5DAAIQgAAEIFCTBLSrq/SAdIGnDzbRy02JDdVjS1q+a2aTpY7Ozk1USxEIQAACEIAABGqRgHSA9IB0wWb7t+E0SqGi0dHRmb379uUaIpGnbOtYt7y8XDjFOwQgAAEIQAACdUBAy1zbV6KFvmh7oPxss13etGVDFR49cuRf7O3NLnMKIfbGZhFTDgIQgAAEINc5dLkAAAc0SURBVOB/Ahr3Nf5bejOvBzbdqbK7vq53dV9f3wGznwzZBm092hWWnSjXo8U5CEAAAhCAgP8JaPWJdnW1DdcmbeDvv3Dhwidb6dWWLBuqWDfIBgIv2A1zHXIQIUEAAhCAAAQgUNMENN5r3Nf4v1WhITCb9tkopjg+Onp53/79Ubvxl9Pmu4H/RjEdjiEAAQhAAAK1Q6C5udl5i0MCgZds9UnZLeQ36u2WLRuFCjvb2//Jjs90dXezM2wBCu8QgAAEIACBGiKgHV01zls6kx/376h3W/bZKL7L8ePH96czmTMW7OvQ2Oio0yoVEgQgAAEIQAAC/icgh1Bbhap90kbCodATAwMDN+60V3ds2dANdWNTK09bQyZ69+xxQQv0QYIABCAAAQhAwN8ENJ5747qN7xrntyM0RGJbYkMV2JayH2SDwWdNAc339vZKASmbBAEIQAACEICADwloHNd4rnFd47vG+e12oyLK4J233x4IBgLfNIfRVHdPj0KYbrddXA8BCEAAAhCAwE4TsPFb47jGc43rGt8r0YSKzXtYhNEP9+3d+0E4EvmWbTsbSCwtEYOjEk+IOiAAAQhAAAI7QEAWjR6zaDQ1NWVtAP9rs2hsOkLoRs2rmNjQjcbGxoZNcFwywfENa2xoCcGxEX/OQwACEIAABO46gYKPhhkLUhIaFkvj5Uo2qirzHceOHftaNpf7b1ud0joxPs4qlUo+MeqCAAQgAAEIVJCAVp3IGVQ+Gpo6GRwc/N8KVu9VVRWxoZoffvTR48Fs9hVbFtursOYE/qr0o6M+CEAAAhCAwPYIKI6GwpBrVamcQSvlo1HaqqqJDd2ov7//SM65X9r+KYfiU1NucXGx9P58hgAEIAABCEDgLhBQZFAF7LJ9T0ZMDDxdiVUna3Wjoj4bpTcxp9H4wQMH/svExhetU/eEzPkkmUyWFuMzBCAAAQhAAAI7RECbqnV2dnohyO34jAXsesamTq5W8/ZVFRtq+I0bN+YffOCBU4lkstGW0jzRFI0GkomEs+mVavaLuiEAAQhAAAIQKCFQ8M+INjfnzKTxUmdHxwtnz56dLSlW8Y9VnUYpbe3Dx449G8zlTpmloycej7vFhYXSInyGAAQgAAEIQKAKBJpbWlxXV5emTSa1e+s7g4OvVOE2ZavcUbGhFvT19R2wnv6nHX5ZPhwz09Muk8mUbRyZEIAABCAAAQhsj0DIQo9r11b5aFh605a2fvtOtonfTiuqPo1S2jiLxTH3lRMnTk3G48mGSORLrbFYxCwdrFYpBcVnCEAAAhCAwDYIyDcjFot5gbrMjWHJFmy8ePTIkb89ffr0zW1Ue0eX7rhlo7iVtlrl3lwg8O+msv5cS2OnbWoFB9JiQhxDAAIQgAAEtk7AgnO5Tpsy0dJWm034WSCX+66tNrmy9Zoqc8VdFRuFLjxy7Ng3DMQP7PO9C+bHMXvzJoHACnB4hwAEIAABCGySgBxA29rbXYv5Z1i6Yv/Qf+/i4OBPN3l51Yrt+DRKuZ6MjY5eOnzo0H+k0mlt/vKYmX0iEQNmEUhZtVIOGHkQgAAEIACBIgKyYGg5q+Jm2Di6aFMmL7VEo98eOH9+uKjYXTvcFZaN4t5bqPNeWxb7j2b2+XvLb9P+KrJ0pFKp4mIcQwACEIAABOqegAkLz5IRjUbFYtbcEn5k0UC/b3EzJnYTnF0nNgpwzJ+jw8w//2DOo9+zRnbLl2N+ft4t2QoWOZSSIAABCEAAAvVIQI6fFifDtba2Ovlm2Ig4ZXk/MHeEH5pfxsxuZLJrxUYB1kMPPdQaikS+Yw39O8u7X0JDS2YVoyNhwcFIEIAABCAAgXogYLupO8XK0BJWCQ5Ll01o/CSzvPzj4eHh+d3MYNeLjWJ4NsXypzbF8oJR/kvL71R8joLokOUDi0cxLY4hAAEIQMDPBCQoZLkoiAzFy7A0bYPdyzZVcsqmSs76pX++EhsFqGbtaDCP2+dtmuUF68Czlt8goSG/DoVCt9DoLoX4KODiHQIQgAAEfEBA4qJB4sJejWbFkD9G3oKRMgvGKzZNcsoWTvzcrBi+c2L0pdgo/s4cP3682SwcT5jY+Ko9la/aueP2Ckl8KHZH2l4pvdvKFh3rHQtIMUGOIQABCEBgRwmYqNCKy7CtINFSVQtw6R1rRUleXCis9oANVqft82mzaJwZGBjw9bbpvhcbpV+Qxx9/XCtYngyEQidNVDxiD+qoPbCDVm61r94mcCZGsvZSKoiPQv5KrneKHxCAAAQgAIEtEfAGGxMUNtXhXZcXEC5oeaYmVvPzlWpDtGs2Dl2ychdzmcxrtrLk9XPnzlV9c7QtdWqbhVcH4G3Ws6svz1s/PmsP86g95aMWvON+e+8wlREzADETFzHrQOGlSCh1wWVXPzQaBwEIQMC/BPQ/q3YandPLBpQ5y5gzUTFn48+MjT+X7V3i4pJZLd73u9ViM4/p/wHYLro+fS88lwAAAABJRU5ErkJggg==;textOpacity=50;" vertex="1" parent="ljEpmhRt66cEGAsof3XZ-29">
          <mxGeometry x="223" width="78.49" height="60" as="geometry" />
        </mxCell>
        <mxCell id="ljEpmhRt66cEGAsof3XZ-3" value="&lt;font style=&quot;font-size: 11px;&quot;&gt;&lt;b&gt;Relational Database&lt;/b&gt;&lt;br&gt;MariaDB&lt;/font&gt;" style="text;html=1;align=center;verticalAlign=middle;resizable=0;points=[];autosize=1;strokeColor=none;fillColor=none;" vertex="1" parent="WIyWlLk6GJQsqaUBKTNV-1">
          <mxGeometry x="680.001" y="320.00272727272727" width="130" height="40" as="geometry" />
        </mxCell>
        <mxCell id="ljEpmhRt66cEGAsof3XZ-2" value="" style="image;html=1;image=img/lib/clip_art/computers/Database_128x128.png" vertex="1" parent="WIyWlLk6GJQsqaUBKTNV-1">
          <mxGeometry x="720.4604285714286" y="365.4563636363636" width="49.088571428571434" height="49.09090909090909" as="geometry" />
        </mxCell>
        <mxCell id="ljEpmhRt66cEGAsof3XZ-30" value="" style="group" vertex="1" connectable="0" parent="WIyWlLk6GJQsqaUBKTNV-1">
          <mxGeometry x="510" y="60" width="270" height="140" as="geometry" />
        </mxCell>
        <mxCell id="ljEpmhRt66cEGAsof3XZ-31" value="&lt;div style=&quot;&quot;&gt;&lt;b style=&quot;background-color: initial;&quot;&gt;Local Docker Registry&lt;/b&gt;&lt;/div&gt;&lt;div style=&quot;&quot;&gt;&lt;span style=&quot;background-color: initial;&quot;&gt;&lt;font style=&quot;font-size: 11px;&quot;&gt;Manage and utilize all Docker images used in the container servers.&lt;/font&gt;&lt;/span&gt;&lt;/div&gt;" style="rounded=1;whiteSpace=wrap;html=1;fontSize=12;glass=0;strokeWidth=1;shadow=0;align=left;spacingLeft=7;" vertex="1" parent="ljEpmhRt66cEGAsof3XZ-30">
          <mxGeometry x="-8.4375" y="80" width="244.6875" height="70" as="geometry" />
        </mxCell>
        <mxCell id="ljEpmhRt66cEGAsof3XZ-33" value="" style="edgeStyle=orthogonalEdgeStyle;rounded=0;orthogonalLoop=1;jettySize=auto;html=1;" edge="1" parent="WIyWlLk6GJQsqaUBKTNV-1" source="ljEpmhRt66cEGAsof3XZ-1" target="ljEpmhRt66cEGAsof3XZ-2">
          <mxGeometry relative="1" as="geometry" />
        </mxCell>
        <mxCell id="ljEpmhRt66cEGAsof3XZ-35" value="" style="edgeStyle=orthogonalEdgeStyle;rounded=0;orthogonalLoop=1;jettySize=auto;html=1;" edge="1" parent="WIyWlLk6GJQsqaUBKTNV-1" source="ljEpmhRt66cEGAsof3XZ-13" target="ljEpmhRt66cEGAsof3XZ-2">
          <mxGeometry relative="1" as="geometry">
            <mxPoint x="805.25" y="657" as="targetPoint" />
          </mxGeometry>
        </mxCell>
        <mxCell id="ljEpmhRt66cEGAsof3XZ-36" value="" style="edgeStyle=orthogonalEdgeStyle;rounded=0;orthogonalLoop=1;jettySize=auto;html=1;exitX=1;exitY=0.5;exitDx=0;exitDy=0;entryX=1;entryY=0.5;entryDx=0;entryDy=0;" edge="1" parent="WIyWlLk6GJQsqaUBKTNV-1" source="ljEpmhRt66cEGAsof3XZ-13" target="ljEpmhRt66cEGAsof3XZ-31">
          <mxGeometry relative="1" as="geometry">
            <mxPoint x="574" y="667" as="sourcePoint" />
            <mxPoint x="755" y="425" as="targetPoint" />
            <Array as="points">
              <mxPoint x="810" y="657" />
              <mxPoint x="810" y="175" />
            </Array>
          </mxGeometry>
        </mxCell>
      </root>
    </mxGraphModel>
  </diagram>
</mxfile>
